<svg version="1.0" xmlns="http://www.w3.org/2000/svg"
 width="96.000000pt" height="96.000000pt" viewBox="0 0 96.000000 96.000000"
 preserveAspectRatio="xMidYMid meet">

<g transform="translate(0.000000,96.000000) scale(0.100000,-0.100000)"
fill="#000000" stroke="none">
<path d="M110 480 l0 -340 370 0 370 0 0 340 0 340 -370 0 -370 0 0 -340z
m710 0 l0 -310 -345 0 -345 0 0 310 0 310 345 0 345 0 0 -310z"/>
<path d="M280 690 c-50 -53 -44 -138 12 -185 26 -22 39 -26 67 -21 43 7 78 41
87 84 5 27 4 32 -12 32 -11 0 -25 -13 -34 -33 -26 -56 -98 -45 -114 19 -7 28
16 79 39 88 9 3 79 6 155 6 117 0 141 -3 159 -17 53 -45 23 -137 -43 -131 -24
2 -34 10 -46 35 -8 18 -23 33 -32 33 -47 0 7 -98 61 -114 106 -30 175 142 84
213 -24 19 -39 21 -190 21 l-165 0 -28 -30z"/>
<path d="M317 430 c3 -13 14 -20 29 -20 23 0 24 -2 24 -85 0 -78 2 -85 20 -85
18 0 20 7 20 86 0 83 1 85 23 82 20 -3 22 -9 25 -85 2 -64 6 -83 17 -83 11 0
15 19 17 83 3 76 5 82 26 85 21 3 22 1 22 -82 0 -79 2 -86 20 -86 18 0 20 7
20 85 0 84 0 85 25 85 14 0 25 2 25 4 0 2 3 11 6 20 5 14 -13 16 -159 16 -160
0 -165 -1 -160 -20z"/>
</g>
</svg>
