<svg width="1151" height="304" viewBox="0 0 1151 304" fill="none" xmlns="http://www.w3.org/2000/svg">
<path d="M611.846 1.04492H615.74V14H613.217V5.2373C613.217 4.98535 613.22 4.63379 613.226 4.18262C613.232 3.72559 613.235 3.37402 613.235 3.12793L610.783 14H608.155L605.72 3.12793C605.72 3.37402 605.723 3.72559 605.729 4.18262C605.735 4.63379 605.738 4.98535 605.738 5.2373V14H603.215V1.04492H607.153L609.508 11.2314L611.846 1.04492ZM622.349 12.2334C623.082 12.2334 623.644 11.9727 624.037 11.4512C624.429 10.9297 624.625 10.1885 624.625 9.22754C624.625 8.2666 624.429 7.52832 624.037 7.0127C623.644 6.49121 623.082 6.23047 622.349 6.23047C621.617 6.23047 621.051 6.49121 620.653 7.0127C620.26 7.52832 620.064 8.2666 620.064 9.22754C620.064 10.1885 620.26 10.9297 620.653 11.4512C621.051 11.9727 621.617 12.2334 622.349 12.2334ZM627.253 9.22754C627.253 10.6338 626.849 11.8379 626.041 12.8398C625.232 13.8359 624.004 14.334 622.358 14.334C620.711 14.334 619.484 13.8359 618.675 12.8398C617.867 11.8379 617.462 10.6338 617.462 9.22754C617.462 7.84473 617.867 6.64648 618.675 5.63281C619.484 4.61914 620.711 4.1123 622.358 4.1123C624.004 4.1123 625.232 4.61914 626.041 5.63281C626.849 6.64648 627.253 7.84473 627.253 9.22754ZM634.364 4.19141C635.354 4.19141 636.163 4.45215 636.79 4.97363C637.422 5.48926 637.739 6.34766 637.739 7.54883V14H635.172V8.17285C635.172 7.66895 635.105 7.28223 634.97 7.0127C634.724 6.52051 634.255 6.27441 633.564 6.27441C632.714 6.27441 632.131 6.63477 631.815 7.35547C631.651 7.73633 631.569 8.22266 631.569 8.81445V14H629.073V4.4375H631.49V5.83496C631.812 5.34277 632.117 4.98828 632.404 4.77148C632.919 4.38477 633.573 4.19141 634.364 4.19141ZM643.838 6.23047C643.258 6.23047 642.807 6.41211 642.485 6.77539C642.168 7.13867 641.969 7.63086 641.887 8.25195H645.781C645.74 7.58984 645.538 7.08887 645.174 6.74902C644.817 6.40332 644.372 6.23047 643.838 6.23047ZM643.838 4.16504C644.635 4.16504 645.353 4.31445 645.992 4.61328C646.63 4.91211 647.158 5.38379 647.574 6.02832C647.949 6.59668 648.192 7.25586 648.303 8.00586C648.368 8.44531 648.394 9.07812 648.382 9.9043H641.826C641.861 10.8652 642.163 11.5391 642.731 11.9258C643.077 12.166 643.493 12.2861 643.979 12.2861C644.495 12.2861 644.914 12.1396 645.236 11.8467C645.412 11.6885 645.567 11.4688 645.702 11.1875H648.259C648.195 11.7559 647.899 12.333 647.372 12.9189C646.551 13.8506 645.403 14.3164 643.926 14.3164C642.708 14.3164 641.632 13.9238 640.701 13.1387C639.769 12.3535 639.303 11.0762 639.303 9.30664C639.303 7.64844 639.722 6.37695 640.56 5.49219C641.404 4.60742 642.497 4.16504 643.838 4.16504ZM650.465 15.8369L650.782 15.8545C651.028 15.8662 651.262 15.8574 651.485 15.8281C651.708 15.7988 651.895 15.7314 652.047 15.626C652.194 15.5264 652.329 15.3184 652.452 15.002C652.581 14.6855 652.633 14.4922 652.61 14.4219L649.094 4.41992H651.88L653.972 11.4863L655.95 4.41992H658.613L655.326 13.8418C654.693 15.6582 654.192 16.7832 653.823 17.2168C653.454 17.6562 652.715 17.876 651.608 17.876C651.385 17.876 651.207 17.873 651.072 17.8672C650.937 17.8672 650.735 17.8584 650.465 17.8408V15.8369ZM673.897 1.04492H677.791V14H675.268V5.2373C675.268 4.98535 675.271 4.63379 675.277 4.18262C675.283 3.72559 675.286 3.37402 675.286 3.12793L672.833 14H670.206L667.771 3.12793C667.771 3.37402 667.774 3.72559 667.78 4.18262C667.786 4.63379 667.789 4.98535 667.789 5.2373V14H665.266V1.04492H669.204L671.559 11.2314L673.897 1.04492ZM685.384 9.3418C685.226 9.44141 685.065 9.52344 684.901 9.58789C684.743 9.64648 684.523 9.70215 684.242 9.75488L683.679 9.86035C683.152 9.9541 682.774 10.0684 682.545 10.2031C682.159 10.4316 681.965 10.7861 681.965 11.2666C681.965 11.6943 682.083 12.0049 682.317 12.1982C682.557 12.3857 682.847 12.4795 683.187 12.4795C683.726 12.4795 684.221 12.3213 684.672 12.0049C685.129 11.6885 685.367 11.1113 685.384 10.2734V9.3418ZM683.864 8.17285C684.327 8.11426 684.658 8.04102 684.857 7.95312C685.214 7.80078 685.393 7.56348 685.393 7.24121C685.393 6.84863 685.255 6.5791 684.98 6.43262C684.71 6.28027 684.312 6.2041 683.785 6.2041C683.193 6.2041 682.774 6.35059 682.528 6.64355C682.352 6.86035 682.235 7.15332 682.176 7.52246H679.759C679.812 6.68457 680.046 5.99609 680.462 5.45703C681.125 4.61328 682.261 4.19141 683.873 4.19141C684.921 4.19141 685.853 4.39941 686.667 4.81543C687.482 5.23145 687.889 6.0166 687.889 7.1709V11.5654C687.889 11.8701 687.895 12.2393 687.907 12.6729C687.924 13.001 687.974 13.2236 688.056 13.3408C688.138 13.458 688.261 13.5547 688.425 13.6309V14H685.701C685.625 13.8066 685.572 13.625 685.542 13.4551C685.513 13.2852 685.49 13.0918 685.472 12.875C685.126 13.25 684.728 13.5693 684.277 13.833C683.738 14.1436 683.128 14.2988 682.449 14.2988C681.582 14.2988 680.864 14.0527 680.295 13.5605C679.733 13.0625 679.452 12.3594 679.452 11.4512C679.452 10.2734 679.906 9.4209 680.814 8.89355C681.312 8.60645 682.044 8.40137 683.011 8.27832L683.864 8.17285ZM695.325 4.19141C695.372 4.19141 695.41 4.19434 695.439 4.2002C695.474 4.2002 695.547 4.20312 695.659 4.20898V6.77539C695.5 6.75781 695.36 6.74609 695.237 6.74023C695.114 6.73438 695.014 6.73145 694.938 6.73145C693.93 6.73145 693.253 7.05957 692.908 7.71582C692.714 8.08496 692.618 8.65332 692.618 9.4209V14H690.095V4.41992H692.486V6.08984C692.873 5.45117 693.209 5.01465 693.497 4.78027C693.965 4.3877 694.575 4.19141 695.325 4.19141ZM697.109 1.08887H699.57V8.06738L702.69 4.46387H705.792L702.444 8.12891L705.924 14H702.901L700.607 9.9043L699.57 10.9854V14H697.109V1.08887ZM710.934 6.23047C710.354 6.23047 709.903 6.41211 709.581 6.77539C709.264 7.13867 709.065 7.63086 708.983 8.25195H712.876C712.835 7.58984 712.633 7.08887 712.27 6.74902C711.913 6.40332 711.467 6.23047 710.934 6.23047ZM710.934 4.16504C711.731 4.16504 712.449 4.31445 713.087 4.61328C713.726 4.91211 714.253 5.38379 714.669 6.02832C715.044 6.59668 715.288 7.25586 715.399 8.00586C715.463 8.44531 715.49 9.07812 715.478 9.9043H708.921C708.957 10.8652 709.258 11.5391 709.827 11.9258C710.172 12.166 710.588 12.2861 711.075 12.2861C711.59 12.2861 712.009 12.1396 712.332 11.8467C712.507 11.6885 712.663 11.4688 712.797 11.1875H715.355C715.291 11.7559 714.995 12.333 714.467 12.9189C713.647 13.8506 712.499 14.3164 711.022 14.3164C709.803 14.3164 708.728 13.9238 707.796 13.1387C706.865 12.3535 706.399 11.0762 706.399 9.30664C706.399 7.64844 706.818 6.37695 707.656 5.49219C708.5 4.60742 709.592 4.16504 710.934 4.16504ZM716.19 6.29199V4.50781H717.526V1.83594H720.004V4.50781H721.56V6.29199H720.004V11.3545C720.004 11.7471 720.054 11.9932 720.154 12.0928C720.253 12.1865 720.558 12.2334 721.068 12.2334C721.144 12.2334 721.223 12.2334 721.305 12.2334C721.393 12.2275 721.478 12.2217 721.56 12.2158V14.0879L720.374 14.1318C719.19 14.1729 718.381 13.9678 717.948 13.5166C717.667 13.2295 717.526 12.7871 717.526 12.1895V6.29199H716.19ZM725.12 10.9414C725.172 11.3867 725.287 11.7031 725.462 11.8906C725.773 12.2246 726.347 12.3916 727.185 12.3916C727.677 12.3916 728.067 12.3184 728.354 12.1719C728.647 12.0254 728.793 11.8057 728.793 11.5127C728.793 11.2314 728.676 11.0176 728.442 10.8711C728.208 10.7246 727.337 10.4727 725.832 10.1152C724.748 9.8457 723.983 9.50879 723.538 9.10449C723.092 8.70605 722.87 8.13184 722.87 7.38184C722.87 6.49707 723.215 5.73828 723.907 5.10547C724.604 4.4668 725.583 4.14746 726.842 4.14746C728.038 4.14746 729.01 4.3877 729.76 4.86816C730.516 5.34277 730.95 6.16602 731.061 7.33789H728.556C728.521 7.01562 728.43 6.76074 728.284 6.57324C728.008 6.2334 727.54 6.06348 726.877 6.06348C726.333 6.06348 725.943 6.14844 725.708 6.31836C725.48 6.48828 725.366 6.6875 725.366 6.91602C725.366 7.20312 725.489 7.41113 725.735 7.54004C725.981 7.6748 726.851 7.90625 728.345 8.23438C729.341 8.46875 730.088 8.82324 730.586 9.29785C731.079 9.77832 731.325 10.3789 731.325 11.0996C731.325 12.0488 730.97 12.8252 730.261 13.4287C729.558 14.0264 728.468 14.3252 726.992 14.3252C725.486 14.3252 724.373 14.0088 723.652 13.376C722.937 12.7373 722.58 11.9258 722.58 10.9414H725.12Z" fill="white"/>
<path d="M666.454 99.3054L666.454 42.5308" stroke="#999594" stroke-dasharray="3 3"/>
<circle cx="666.454" cy="37.11" r="6.36095" stroke="white" stroke-width="3"/>
<path d="M1023.01 145.339L1150.23 145.339" stroke="#999594" stroke-dasharray="3 3"/>
<path d="M869.273 145.339L922.014 145.339" stroke="#999594" stroke-dasharray="3 3"/>
<path d="M562.311 145.339L615.052 145.339" stroke="#999594" stroke-dasharray="3 3"/>
<path d="M254.526 145.339L307.266 145.339" stroke="#999594" stroke-dasharray="3 3"/>
<path d="M716.194 145.339L768.935 145.339" stroke="#999594" stroke-dasharray="3 3"/>
<path d="M408.232 145.339L460.972 145.339" stroke="#999594" stroke-dasharray="3 3"/>
<path d="M100.634 145.339L153.375 145.339" stroke="#999594" stroke-dasharray="3 3"/>
<circle cx="665.454" cy="145.339" r="47.5" stroke="white" stroke-width="5"/>
<path d="M692.225 143.787C691.229 145.388 689.698 146.49 688.377 147.781C686.156 149.948 683.872 152.048 681.641 154.204C679.572 156.203 677.093 156.993 674.262 156.697C669.925 156.243 665.59 155.774 661.263 155.232C659.772 155.047 658.753 155.774 657.746 156.624C657.671 156.726 657.64 156.853 657.659 156.978C657.754 158.173 657.333 159.126 656.376 159.866C654.688 161.164 653.017 162.491 651.336 163.802C650.627 164.356 650.128 164.3 649.569 163.605C646.322 159.541 643.077 155.474 639.834 151.406C639.298 150.734 639.35 150.215 640.015 149.685C641.692 148.34 643.371 147.001 645.054 145.667C645.409 145.37 645.824 145.153 646.272 145.031C646.72 144.91 647.19 144.887 647.648 144.965C647.739 144.971 647.83 144.957 647.915 144.924C648 144.89 648.076 144.839 648.137 144.772C652.122 139.333 659.562 138.718 664.579 141.304C664.834 141.43 665.109 141.508 665.392 141.537C668.82 141.929 672.243 142.324 675.683 142.686C677.081 142.832 678.244 143.344 679.204 144.741C679.311 144.561 679.366 144.376 679.489 144.274C681.561 142.568 683.645 140.874 685.721 139.171C688.217 137.126 691.528 138.161 692.41 141.27C692.431 141.315 692.455 141.357 692.483 141.397L692.225 143.787ZM656.63 154.897C656.729 154.826 656.86 154.75 656.971 154.653C658.389 153.411 660.008 153.044 661.886 153.282C666.027 153.809 670.181 154.23 674.331 154.692C676.325 154.915 678.223 154.574 679.709 153.208C683.141 150.054 686.49 146.811 689.859 143.591C690.246 143.233 690.475 142.737 690.495 142.212C690.516 141.686 690.326 141.174 689.968 140.787C689.241 139.981 688.027 139.894 687.148 140.614C684.765 142.551 682.389 144.494 680.02 146.442C679.882 146.553 679.788 146.709 679.754 146.882C679.439 149.518 677.597 150.995 674.949 150.706C672.422 150.431 669.896 150.149 667.37 149.86C667.153 149.841 666.939 149.793 666.734 149.718C666.534 149.627 666.37 149.474 666.267 149.281C666.164 149.088 666.128 148.867 666.165 148.652C666.202 148.437 666.309 148.24 666.471 148.093C666.632 147.945 666.839 147.855 667.057 147.837C667.276 147.83 667.494 147.842 667.71 147.873C670.187 148.15 672.663 148.426 675.139 148.702C675.389 148.736 675.642 148.746 675.894 148.733C676.411 148.688 676.89 148.444 677.229 148.055C677.568 147.665 677.741 147.159 677.711 146.644C677.635 145.545 676.906 144.852 675.642 144.71C672.062 144.31 668.481 143.91 664.902 143.5C664.536 143.46 664.179 143.357 663.848 143.194C660.865 141.663 657.77 141.434 654.602 142.441C652.503 143.11 650.844 144.415 649.632 146.183L656.63 154.897ZM650.911 161.808C652.262 160.677 653.672 159.488 655.093 158.311C655.782 157.74 655.852 157.253 655.29 156.554C652.86 153.532 650.431 150.512 648.002 147.493C647.443 146.798 646.952 146.75 646.24 147.314C644.899 148.378 643.56 149.446 642.223 150.516C642.123 150.595 642.032 150.685 641.884 150.82L650.911 161.808Z" fill="white"/>
<path d="M670.165 129.144C670.474 129.243 670.789 129.328 671.09 129.446C673.619 130.436 675.046 132.967 674.613 135.68C674.215 138.181 671.991 140.149 669.38 140.314C668.636 140.34 667.894 140.22 667.197 139.962C666.499 139.703 665.859 139.31 665.314 138.805C664.769 138.301 664.329 137.695 664.019 137.022C663.709 136.348 663.536 135.621 663.508 134.882C663.481 134.143 663.601 133.406 663.86 132.712C664.12 132.019 664.514 131.384 665.021 130.843C665.528 130.302 666.137 129.865 666.814 129.558C667.491 129.251 668.222 129.08 668.966 129.054C669.025 129.049 669.084 129.041 669.142 129.029L670.165 129.144ZM668.503 139.261C669.414 139.366 670.335 139.2 671.15 138.784C671.965 138.369 672.637 137.722 673.082 136.927C673.527 136.131 673.725 135.222 673.65 134.314C673.575 133.406 673.231 132.54 672.662 131.825C672.093 131.111 671.323 130.58 670.451 130.299C669.578 130.019 668.642 130.001 667.761 130.249C666.879 130.497 666.092 131 665.498 131.692C664.904 132.385 664.53 133.238 664.424 134.143C664.353 134.745 664.402 135.355 664.569 135.939C664.735 136.522 665.016 137.067 665.395 137.543C665.774 138.019 666.244 138.416 666.777 138.711C667.31 139.006 667.897 139.194 668.503 139.263L668.503 139.261Z" fill="white"/>
<path d="M669.72 132.214C669.959 132.422 670.185 132.592 670.381 132.793C670.432 132.84 670.472 132.897 670.499 132.96C670.527 133.023 670.54 133.091 670.539 133.16C670.538 133.229 670.523 133.297 670.493 133.359C670.464 133.421 670.422 133.477 670.37 133.522C670.158 133.717 669.864 133.699 669.63 133.486C669.521 133.38 669.401 133.285 669.271 133.204C669.185 133.153 669.084 133.132 668.985 133.143C668.886 133.154 668.792 133.197 668.72 133.265C668.642 133.321 668.584 133.398 668.552 133.488C668.521 133.577 668.517 133.674 668.543 133.766C668.563 133.863 668.611 133.951 668.682 134.021C668.753 134.09 668.843 134.137 668.941 134.155C669.108 134.188 669.273 134.233 669.434 134.292C669.71 134.413 669.946 134.611 670.11 134.863C670.275 135.115 670.362 135.41 670.36 135.71C670.359 136.015 670.266 136.312 670.092 136.563C669.918 136.814 669.672 137.006 669.386 137.116C669.202 137.184 669.13 137.274 669.131 137.459C669.13 137.587 669.116 137.715 669.088 137.84C669.063 137.967 668.988 138.079 668.881 138.152C668.774 138.225 668.642 138.254 668.514 138.232C668.253 138.196 668.024 137.971 668.085 137.719C668.187 137.271 668.073 136.976 667.666 136.745C667.499 136.652 667.379 136.453 667.269 136.283C667.201 136.177 667.176 136.05 667.2 135.927C667.224 135.803 667.296 135.694 667.399 135.622C667.501 135.543 667.631 135.505 667.761 135.519C667.89 135.532 668.01 135.595 668.094 135.694C668.208 135.832 668.332 135.961 668.466 136.081C668.551 136.155 668.658 136.199 668.771 136.207C668.884 136.214 668.996 136.185 669.09 136.122C669.181 136.071 669.252 135.992 669.293 135.897C669.334 135.801 669.343 135.695 669.317 135.595C669.264 135.349 669.093 135.226 668.852 135.178C668.057 135.018 667.577 134.52 667.504 133.781C667.436 133.091 667.834 132.498 668.554 132.196C668.627 132.155 668.681 132.087 668.704 132.006C668.73 131.881 668.746 131.754 668.753 131.627C668.798 131.287 669.037 131.077 669.335 131.116C669.634 131.154 669.806 131.401 669.777 131.73C669.761 131.905 669.734 132.081 669.72 132.214Z" fill="white"/>
<path d="M675.201 123.298C675.455 123.381 675.714 123.45 675.962 123.547C678.048 124.363 679.219 126.448 678.863 128.682C678.53 130.74 676.703 132.363 674.553 132.498C673.93 132.536 673.306 132.45 672.717 132.245C672.128 132.04 671.587 131.72 671.124 131.303C670.661 130.886 670.287 130.382 670.024 129.82C669.761 129.257 669.613 128.648 669.59 128.029C669.568 127.409 669.67 126.791 669.891 126.212C670.113 125.633 670.449 125.104 670.88 124.656C671.311 124.208 671.828 123.851 672.4 123.605C672.972 123.359 673.589 123.23 674.213 123.225C674.261 123.222 674.31 123.215 674.358 123.204L675.201 123.298ZM673.836 131.633C674.586 131.718 675.344 131.58 676.014 131.237C676.685 130.894 677.238 130.361 677.603 129.705C677.969 129.05 678.131 128.301 678.068 127.553C678.006 126.806 677.722 126.093 677.253 125.505C676.783 124.917 676.149 124.481 675.431 124.25C674.712 124.02 673.942 124.006 673.216 124.211C672.49 124.415 671.842 124.829 671.353 125.4C670.865 125.971 670.557 126.673 670.47 127.418C670.411 127.914 670.451 128.417 670.589 128.898C670.726 129.379 670.958 129.828 671.271 130.22C671.584 130.612 671.972 130.938 672.412 131.181C672.852 131.423 673.336 131.577 673.836 131.633V131.633Z" fill="white"/>
<path d="M674.833 125.828C675.031 125.999 675.213 126.138 675.376 126.301C675.418 126.339 675.451 126.386 675.474 126.438C675.496 126.49 675.507 126.546 675.506 126.603C675.506 126.659 675.493 126.715 675.469 126.766C675.445 126.818 675.41 126.863 675.367 126.9C675.193 127.061 674.951 127.047 674.759 126.871C674.668 126.784 674.569 126.706 674.463 126.639C674.391 126.597 674.308 126.58 674.226 126.589C674.144 126.599 674.068 126.634 674.008 126.691C673.944 126.736 673.895 126.8 673.869 126.874C673.842 126.947 673.838 127.027 673.858 127.103C673.875 127.183 673.915 127.256 673.973 127.313C674.032 127.37 674.106 127.409 674.186 127.424C674.323 127.45 674.458 127.487 674.589 127.536C674.817 127.634 675.011 127.797 675.147 128.005C675.283 128.212 675.354 128.454 675.352 128.702C675.352 128.953 675.275 129.197 675.131 129.404C674.988 129.61 674.786 129.769 674.55 129.859C674.486 129.872 674.428 129.909 674.39 129.961C674.351 130.014 674.333 130.079 674.34 130.144C674.34 130.25 674.328 130.355 674.305 130.458C674.284 130.562 674.223 130.654 674.135 130.715C674.046 130.775 673.938 130.799 673.832 130.781C673.618 130.751 673.43 130.569 673.478 130.358C673.563 129.99 673.469 129.746 673.133 129.557C672.996 129.48 672.898 129.318 672.806 129.177C672.75 129.09 672.73 128.985 672.749 128.884C672.769 128.782 672.828 128.693 672.913 128.633C672.997 128.567 673.104 128.536 673.211 128.547C673.318 128.558 673.417 128.61 673.486 128.692C673.58 128.806 673.682 128.912 673.791 129.011C673.861 129.072 673.95 129.109 674.043 129.115C674.136 129.122 674.229 129.097 674.306 129.044C674.381 129.003 674.44 128.938 674.474 128.859C674.508 128.781 674.514 128.694 674.493 128.611C674.474 128.521 674.427 128.439 674.358 128.377C674.289 128.315 674.202 128.277 674.11 128.267C673.456 128.135 673.06 127.724 673.001 127.113C672.945 126.545 673.272 126.057 673.865 125.808C673.925 125.774 673.968 125.717 673.986 125.651C674.006 125.547 674.017 125.443 674.021 125.337C674.058 125.058 674.255 124.884 674.501 124.916C674.746 124.947 674.889 125.151 674.864 125.421C674.864 125.573 674.845 125.719 674.833 125.828Z" fill="white"/>
<path d="M908.211 1.04492H910.962V9.00781C910.962 9.89844 911.068 10.5488 911.279 10.959C911.607 11.6855 912.322 12.0488 913.423 12.0488C914.519 12.0488 915.231 11.6855 915.559 10.959C915.77 10.5488 915.875 9.89844 915.875 9.00781V1.04492H918.626V9.00781C918.626 10.3848 918.413 11.457 917.985 12.2246C917.188 13.6309 915.667 14.334 913.423 14.334C911.179 14.334 909.656 13.6309 908.853 12.2246C908.425 11.457 908.211 10.3848 908.211 9.00781V1.04492ZM926.22 4.19141C926.267 4.19141 926.305 4.19434 926.334 4.2002C926.37 4.2002 926.443 4.20312 926.554 4.20898V6.77539C926.396 6.75781 926.255 6.74609 926.132 6.74023C926.009 6.73438 925.91 6.73145 925.833 6.73145C924.826 6.73145 924.149 7.05957 923.803 7.71582C923.61 8.08496 923.513 8.65332 923.513 9.4209V14H920.991V4.41992H923.381V6.08984C923.768 5.45117 924.105 5.01465 924.392 4.78027C924.861 4.3877 925.47 4.19141 926.22 4.19141ZM933.313 9.3418C933.155 9.44141 932.994 9.52344 932.83 9.58789C932.671 9.64648 932.452 9.70215 932.17 9.75488L931.608 9.86035C931.081 9.9541 930.703 10.0684 930.474 10.2031C930.087 10.4316 929.894 10.7861 929.894 11.2666C929.894 11.6943 930.011 12.0049 930.246 12.1982C930.486 12.3857 930.776 12.4795 931.116 12.4795C931.655 12.4795 932.15 12.3213 932.601 12.0049C933.058 11.6885 933.295 11.1113 933.313 10.2734V9.3418ZM931.792 8.17285C932.255 8.11426 932.586 8.04102 932.786 7.95312C933.143 7.80078 933.322 7.56348 933.322 7.24121C933.322 6.84863 933.184 6.5791 932.909 6.43262C932.639 6.28027 932.241 6.2041 931.713 6.2041C931.122 6.2041 930.703 6.35059 930.457 6.64355C930.281 6.86035 930.164 7.15332 930.105 7.52246H927.688C927.741 6.68457 927.975 5.99609 928.391 5.45703C929.053 4.61328 930.19 4.19141 931.801 4.19141C932.85 4.19141 933.782 4.39941 934.596 4.81543C935.411 5.23145 935.818 6.0166 935.818 7.1709V11.5654C935.818 11.8701 935.824 12.2393 935.835 12.6729C935.853 13.001 935.903 13.2236 935.985 13.3408C936.067 13.458 936.19 13.5547 936.354 13.6309V14H933.629C933.553 13.8066 933.5 13.625 933.471 13.4551C933.442 13.2852 933.418 13.0918 933.401 12.875C933.055 13.25 932.657 13.5693 932.206 13.833C931.667 14.1436 931.057 14.2988 930.377 14.2988C929.51 14.2988 928.792 14.0527 928.224 13.5605C927.662 13.0625 927.38 12.3594 927.38 11.4512C927.38 10.2734 927.834 9.4209 928.743 8.89355C929.241 8.60645 929.973 8.40137 930.94 8.27832L931.792 8.17285ZM943.359 4.19141C944.349 4.19141 945.158 4.45215 945.785 4.97363C946.417 5.48926 946.734 6.34766 946.734 7.54883V14H944.167V8.17285C944.167 7.66895 944.1 7.28223 943.965 7.0127C943.719 6.52051 943.25 6.27441 942.559 6.27441C941.709 6.27441 941.126 6.63477 940.81 7.35547C940.646 7.73633 940.564 8.22266 940.564 8.81445V14H938.068V4.4375H940.485V5.83496C940.807 5.34277 941.112 4.98828 941.399 4.77148C941.915 4.38477 942.568 4.19141 943.359 4.19141ZM951.55 4.41992V10.1943C951.55 10.7393 951.615 11.1494 951.744 11.4248C951.972 11.9111 952.42 12.1543 953.088 12.1543C953.944 12.1543 954.53 11.8086 954.846 11.1172C955.01 10.7422 955.092 10.2471 955.092 9.63184V4.41992H957.632V14H955.198V12.6465C955.174 12.6758 955.116 12.7637 955.022 12.9102C954.928 13.0566 954.817 13.1855 954.688 13.2969C954.295 13.6484 953.915 13.8887 953.545 14.0176C953.182 14.1465 952.754 14.2109 952.262 14.2109C950.844 14.2109 949.889 13.7012 949.397 12.6816C949.122 12.1191 948.984 11.29 948.984 10.1943V4.41992H951.55ZM962.009 10.9414C962.062 11.3867 962.176 11.7031 962.352 11.8906C962.663 12.2246 963.237 12.3916 964.075 12.3916C964.567 12.3916 964.957 12.3184 965.244 12.1719C965.537 12.0254 965.683 11.8057 965.683 11.5127C965.683 11.2314 965.566 11.0176 965.332 10.8711C965.097 10.7246 964.227 10.4727 962.721 10.1152C961.637 9.8457 960.873 9.50879 960.427 9.10449C959.982 8.70605 959.759 8.13184 959.759 7.38184C959.759 6.49707 960.105 5.73828 960.796 5.10547C961.494 4.4668 962.472 4.14746 963.732 4.14746C964.927 4.14746 965.9 4.3877 966.65 4.86816C967.406 5.34277 967.839 6.16602 967.951 7.33789H965.446C965.411 7.01562 965.32 6.76074 965.173 6.57324C964.898 6.2334 964.429 6.06348 963.767 6.06348C963.222 6.06348 962.833 6.14844 962.598 6.31836C962.37 6.48828 962.255 6.6875 962.255 6.91602C962.255 7.20312 962.378 7.41113 962.625 7.54004C962.871 7.6748 963.741 7.90625 965.235 8.23438C966.231 8.46875 966.978 8.82324 967.476 9.29785C967.968 9.77832 968.214 10.3789 968.214 11.0996C968.214 12.0488 967.86 12.8252 967.151 13.4287C966.448 14.0264 965.358 14.3252 963.881 14.3252C962.375 14.3252 961.262 14.0088 960.542 13.376C959.827 12.7373 959.469 11.9258 959.469 10.9414H962.009ZM977.25 10.001C977.332 10.5928 977.493 11.0352 977.733 11.3281C978.172 11.8613 978.925 12.1279 979.992 12.1279C980.63 12.1279 981.149 12.0576 981.547 11.917C982.303 11.6475 982.681 11.1465 982.681 10.4141C982.681 9.98633 982.494 9.65527 982.119 9.4209C981.744 9.19238 981.155 8.99023 980.352 8.81445L978.981 8.50684C977.633 8.20215 976.702 7.87109 976.186 7.51367C975.313 6.91602 974.876 5.98145 974.876 4.70996C974.876 3.5498 975.298 2.58594 976.142 1.81836C976.986 1.05078 978.225 0.666992 979.86 0.666992C981.225 0.666992 982.388 1.03027 983.349 1.75684C984.316 2.47754 984.823 3.52637 984.87 4.90332H982.268C982.221 4.12402 981.881 3.57031 981.249 3.24219C980.827 3.02539 980.302 2.91699 979.675 2.91699C978.978 2.91699 978.421 3.05762 978.005 3.33887C977.589 3.62012 977.381 4.0127 977.381 4.5166C977.381 4.97949 977.586 5.3252 977.997 5.55371C978.26 5.70605 978.823 5.88477 979.684 6.08984L981.917 6.62598C982.895 6.86035 983.633 7.17383 984.131 7.56641C984.905 8.17578 985.292 9.05762 985.292 10.2119C985.292 11.3955 984.837 12.3799 983.929 13.165C983.027 13.9443 981.75 14.334 980.097 14.334C978.41 14.334 977.083 13.9502 976.116 13.1826C975.149 12.4092 974.666 11.3486 974.666 10.001H977.25ZM986.109 6.29199V4.50781H987.445V1.83594H989.923V4.50781H991.479V6.29199H989.923V11.3545C989.923 11.7471 989.973 11.9932 990.073 12.0928C990.172 12.1865 990.477 12.2334 990.987 12.2334C991.063 12.2334 991.142 12.2334 991.224 12.2334C991.312 12.2275 991.397 12.2217 991.479 12.2158V14.0879L990.292 14.1318C989.109 14.1729 988.3 13.9678 987.867 13.5166C987.585 13.2295 987.445 12.7871 987.445 12.1895V6.29199H986.109ZM998.37 9.3418C998.211 9.44141 998.05 9.52344 997.886 9.58789C997.728 9.64648 997.508 9.70215 997.227 9.75488L996.665 9.86035C996.137 9.9541 995.759 10.0684 995.531 10.2031C995.144 10.4316 994.951 10.7861 994.951 11.2666C994.951 11.6943 995.068 12.0049 995.302 12.1982C995.542 12.3857 995.833 12.4795 996.172 12.4795C996.711 12.4795 997.207 12.3213 997.658 12.0049C998.115 11.6885 998.352 11.1113 998.37 10.2734V9.3418ZM996.849 8.17285C997.312 8.11426 997.643 8.04102 997.842 7.95312C998.2 7.80078 998.378 7.56348 998.378 7.24121C998.378 6.84863 998.241 6.5791 997.965 6.43262C997.696 6.28027 997.297 6.2041 996.77 6.2041C996.178 6.2041 995.759 6.35059 995.513 6.64355C995.337 6.86035 995.22 7.15332 995.162 7.52246H992.745C992.797 6.68457 993.032 5.99609 993.448 5.45703C994.11 4.61328 995.247 4.19141 996.858 4.19141C997.907 4.19141 998.838 4.39941 999.653 4.81543C1000.47 5.23145 1000.87 6.0166 1000.87 7.1709V11.5654C1000.87 11.8701 1000.88 12.2393 1000.89 12.6729C1000.91 13.001 1000.96 13.2236 1001.04 13.3408C1001.12 13.458 1001.25 13.5547 1001.41 13.6309V14H998.686C998.61 13.8066 998.557 13.625 998.528 13.4551C998.499 13.2852 998.475 13.0918 998.458 12.875C998.112 13.25 997.713 13.5693 997.262 13.833C996.723 14.1436 996.114 14.2988 995.434 14.2988C994.567 14.2988 993.849 14.0527 993.281 13.5605C992.718 13.0625 992.437 12.3594 992.437 11.4512C992.437 10.2734 992.891 9.4209 993.799 8.89355C994.297 8.60645 995.03 8.40137 995.997 8.27832L996.849 8.17285ZM1008.28 4.20898C1009.54 4.20898 1010.53 4.66309 1011.24 5.57129C1011.95 6.47949 1012.31 7.65137 1012.31 9.08691C1012.31 10.5752 1011.96 11.8086 1011.25 12.7871C1010.55 13.7656 1009.57 14.2549 1008.31 14.2549C1007.52 14.2549 1006.88 14.0967 1006.4 13.7803C1006.12 13.5928 1005.81 13.2646 1005.47 12.7959V14H1003.02V1.0625H1005.52V5.66797C1005.83 5.22266 1006.18 4.88281 1006.56 4.64844C1007.01 4.35547 1007.59 4.20898 1008.28 4.20898ZM1007.64 12.1895C1008.29 12.1895 1008.79 11.9287 1009.15 11.4072C1009.5 10.8857 1009.68 10.2002 1009.68 9.35059C1009.68 8.6709 1009.59 8.1084 1009.42 7.66309C1009.08 6.81934 1008.47 6.39746 1007.57 6.39746C1006.66 6.39746 1006.04 6.81055 1005.7 7.63672C1005.52 8.07617 1005.44 8.64453 1005.44 9.3418C1005.44 10.1621 1005.62 10.8418 1005.98 11.3809C1006.34 11.9199 1006.9 12.1895 1007.64 12.1895ZM1016.67 14H1014.16V1.04492H1016.67V14ZM1022.9 6.23047C1022.32 6.23047 1021.87 6.41211 1021.55 6.77539C1021.23 7.13867 1021.03 7.63086 1020.95 8.25195H1024.84C1024.8 7.58984 1024.6 7.08887 1024.24 6.74902C1023.88 6.40332 1023.43 6.23047 1022.9 6.23047ZM1022.9 4.16504C1023.7 4.16504 1024.41 4.31445 1025.05 4.61328C1025.69 4.91211 1026.22 5.38379 1026.64 6.02832C1027.01 6.59668 1027.25 7.25586 1027.36 8.00586C1027.43 8.44531 1027.46 9.07812 1027.44 9.9043H1020.89C1020.92 10.8652 1021.22 11.5391 1021.79 11.9258C1022.14 12.166 1022.55 12.2861 1023.04 12.2861C1023.56 12.2861 1023.98 12.1396 1024.3 11.8467C1024.47 11.6885 1024.63 11.4688 1024.76 11.1875H1027.32C1027.26 11.7559 1026.96 12.333 1026.43 12.9189C1025.61 13.8506 1024.46 14.3164 1022.99 14.3164C1021.77 14.3164 1020.69 13.9238 1019.76 13.1387C1018.83 12.3535 1018.36 11.0762 1018.36 9.30664C1018.36 7.64844 1018.78 6.37695 1019.62 5.49219C1020.47 4.60742 1021.56 4.16504 1022.9 4.16504ZM1031.09 10.9414C1031.14 11.3867 1031.26 11.7031 1031.43 11.8906C1031.74 12.2246 1032.32 12.3916 1033.16 12.3916C1033.65 12.3916 1034.04 12.3184 1034.33 12.1719C1034.62 12.0254 1034.77 11.8057 1034.77 11.5127C1034.77 11.2314 1034.65 11.0176 1034.41 10.8711C1034.18 10.7246 1033.31 10.4727 1031.8 10.1152C1030.72 9.8457 1029.95 9.50879 1029.51 9.10449C1029.06 8.70605 1028.84 8.13184 1028.84 7.38184C1028.84 6.49707 1029.19 5.73828 1029.88 5.10547C1030.58 4.4668 1031.55 4.14746 1032.81 4.14746C1034.01 4.14746 1034.98 4.3877 1035.73 4.86816C1036.49 5.34277 1036.92 6.16602 1037.03 7.33789H1034.53C1034.49 7.01562 1034.4 6.76074 1034.26 6.57324C1033.98 6.2334 1033.51 6.06348 1032.85 6.06348C1032.3 6.06348 1031.91 6.14844 1031.68 6.31836C1031.45 6.48828 1031.34 6.6875 1031.34 6.91602C1031.34 7.20312 1031.46 7.41113 1031.71 7.54004C1031.95 7.6748 1032.82 7.90625 1034.32 8.23438C1035.31 8.46875 1036.06 8.82324 1036.56 9.29785C1037.05 9.77832 1037.3 10.3789 1037.3 11.0996C1037.3 12.0488 1036.94 12.8252 1036.23 13.4287C1035.53 14.0264 1034.44 14.3252 1032.96 14.3252C1031.46 14.3252 1030.34 14.0088 1029.62 13.376C1028.91 12.7373 1028.55 11.9258 1028.55 10.9414H1031.09Z" fill="white"/>
<path d="M972.416 99.3054L972.416 42.5308" stroke="#999594" stroke-dasharray="3 3"/>
<circle cx="972.416" cy="37.11" r="6.36095" stroke="white" stroke-width="3"/>
<circle cx="972.416" cy="145.339" r="47.5" stroke="white" stroke-width="5"/>
<path fill-rule="evenodd" clip-rule="evenodd" d="M954.127 134.491L971.788 125.988L990.704 134.468V138.915H954.127V134.491ZM956.565 136.477H988.266V136.047L971.824 128.677L956.565 136.024V136.477ZM988.266 155.985H956.565V158.423H988.266V155.985ZM954.127 160.252H990.704V162.691H954.127V160.252ZM959.613 141.354H957.175V153.546H959.613V141.354ZM985.218 141.354H987.656V153.546H985.218V141.354ZM980.341 141.354H977.902V153.546H980.341V141.354ZM964.49 141.354H966.929V153.546H964.49V141.354ZM973.635 141.354H971.196V153.546H973.635V141.354Z" fill="white"/>
<path d="M306.051 1.04492H308.802V9.00781C308.802 9.89844 308.907 10.5488 309.118 10.959C309.447 11.6855 310.161 12.0488 311.263 12.0488C312.359 12.0488 313.071 11.6855 313.399 10.959C313.61 10.5488 313.715 9.89844 313.715 9.00781V1.04492H316.466V9.00781C316.466 10.3848 316.252 11.457 315.824 12.2246C315.028 13.6309 313.507 14.334 311.263 14.334C309.019 14.334 307.495 13.6309 306.693 12.2246C306.265 11.457 306.051 10.3848 306.051 9.00781V1.04492ZM324.06 4.19141C324.107 4.19141 324.145 4.19434 324.174 4.2002C324.209 4.2002 324.282 4.20312 324.394 4.20898V6.77539C324.236 6.75781 324.095 6.74609 323.972 6.74023C323.849 6.73438 323.749 6.73145 323.673 6.73145C322.665 6.73145 321.989 7.05957 321.643 7.71582C321.449 8.08496 321.353 8.65332 321.353 9.4209V14H318.83V4.41992H321.221V6.08984C321.608 5.45117 321.945 5.01465 322.232 4.78027C322.7 4.3877 323.31 4.19141 324.06 4.19141ZM331.153 9.3418C330.994 9.44141 330.833 9.52344 330.669 9.58789C330.511 9.64648 330.291 9.70215 330.01 9.75488L329.448 9.86035C328.92 9.9541 328.542 10.0684 328.314 10.2031C327.927 10.4316 327.734 10.7861 327.734 11.2666C327.734 11.6943 327.851 12.0049 328.085 12.1982C328.325 12.3857 328.615 12.4795 328.955 12.4795C329.494 12.4795 329.99 12.3213 330.441 12.0049C330.898 11.6885 331.135 11.1113 331.153 10.2734V9.3418ZM329.632 8.17285C330.095 8.11426 330.426 8.04102 330.625 7.95312C330.983 7.80078 331.161 7.56348 331.161 7.24121C331.161 6.84863 331.024 6.5791 330.748 6.43262C330.479 6.28027 330.08 6.2041 329.553 6.2041C328.961 6.2041 328.542 6.35059 328.296 6.64355C328.12 6.86035 328.003 7.15332 327.945 7.52246H325.528C325.58 6.68457 325.815 5.99609 326.231 5.45703C326.893 4.61328 328.03 4.19141 329.641 4.19141C330.69 4.19141 331.621 4.39941 332.436 4.81543C333.25 5.23145 333.657 6.0166 333.657 7.1709V11.5654C333.657 11.8701 333.663 12.2393 333.675 12.6729C333.693 13.001 333.742 13.2236 333.824 13.3408C333.906 13.458 334.03 13.5547 334.194 13.6309V14H331.469C331.393 13.8066 331.34 13.625 331.311 13.4551C331.281 13.2852 331.258 13.0918 331.24 12.875C330.895 13.25 330.496 13.5693 330.045 13.833C329.506 14.1436 328.897 14.2988 328.217 14.2988C327.35 14.2988 326.632 14.0527 326.064 13.5605C325.501 13.0625 325.22 12.3594 325.22 11.4512C325.22 10.2734 325.674 9.4209 326.582 8.89355C327.08 8.60645 327.813 8.40137 328.78 8.27832L329.632 8.17285ZM341.198 4.19141C342.189 4.19141 342.997 4.45215 343.624 4.97363C344.257 5.48926 344.573 6.34766 344.573 7.54883V14H342.007V8.17285C342.007 7.66895 341.94 7.28223 341.805 7.0127C341.559 6.52051 341.09 6.27441 340.399 6.27441C339.549 6.27441 338.966 6.63477 338.65 7.35547C338.486 7.73633 338.404 8.22266 338.404 8.81445V14H335.907V4.4375H338.324V5.83496C338.647 5.34277 338.951 4.98828 339.239 4.77148C339.754 4.38477 340.407 4.19141 341.198 4.19141ZM349.39 4.41992V10.1943C349.39 10.7393 349.454 11.1494 349.583 11.4248C349.812 11.9111 350.26 12.1543 350.928 12.1543C351.783 12.1543 352.369 11.8086 352.686 11.1172C352.85 10.7422 352.932 10.2471 352.932 9.63184V4.41992H355.472V14H353.037V12.6465C353.014 12.6758 352.955 12.7637 352.862 12.9102C352.768 13.0566 352.656 13.1855 352.528 13.2969C352.135 13.6484 351.754 13.8887 351.385 14.0176C351.022 14.1465 350.594 14.2109 350.102 14.2109C348.684 14.2109 347.729 13.7012 347.237 12.6816C346.961 12.1191 346.823 11.29 346.823 10.1943V4.41992H349.39ZM359.849 10.9414C359.902 11.3867 360.016 11.7031 360.192 11.8906C360.502 12.2246 361.076 12.3916 361.914 12.3916C362.406 12.3916 362.796 12.3184 363.083 12.1719C363.376 12.0254 363.523 11.8057 363.523 11.5127C363.523 11.2314 363.406 11.0176 363.171 10.8711C362.937 10.7246 362.067 10.4727 360.561 10.1152C359.477 9.8457 358.712 9.50879 358.267 9.10449C357.822 8.70605 357.599 8.13184 357.599 7.38184C357.599 6.49707 357.945 5.73828 358.636 5.10547C359.333 4.4668 360.312 4.14746 361.572 4.14746C362.767 4.14746 363.74 4.3877 364.49 4.86816C365.245 5.34277 365.679 6.16602 365.79 7.33789H363.285C363.25 7.01562 363.159 6.76074 363.013 6.57324C362.738 6.2334 362.269 6.06348 361.607 6.06348C361.062 6.06348 360.672 6.14844 360.438 6.31836C360.209 6.48828 360.095 6.6875 360.095 6.91602C360.095 7.20312 360.218 7.41113 360.464 7.54004C360.71 7.6748 361.58 7.90625 363.074 8.23438C364.071 8.46875 364.818 8.82324 365.316 9.29785C365.808 9.77832 366.054 10.3789 366.054 11.0996C366.054 12.0488 365.699 12.8252 364.99 13.4287C364.287 14.0264 363.198 14.3252 361.721 14.3252C360.215 14.3252 359.102 14.0088 358.381 13.376C357.666 12.7373 357.309 11.9258 357.309 10.9414H359.849ZM375.757 3.29492V11.75H378.253C379.531 11.75 380.421 11.1201 380.925 9.86035C381.2 9.16895 381.338 8.3457 381.338 7.39062C381.338 6.07227 381.13 5.06152 380.714 4.3584C380.304 3.64941 379.484 3.29492 378.253 3.29492H375.757ZM378.71 1.04492C379.513 1.05664 380.181 1.15039 380.714 1.32617C381.622 1.625 382.358 2.17285 382.92 2.96973C383.371 3.61426 383.679 4.31152 383.843 5.06152C384.007 5.81152 384.089 6.52637 384.089 7.20605C384.089 8.92871 383.743 10.3877 383.052 11.583C382.115 13.1943 380.667 14 378.71 14H373.129V1.04492H378.71ZM389.679 9.10449H392.966L391.349 4.00684L389.679 9.10449ZM389.846 1.04492H392.905L397.492 14H394.557L393.722 11.3369H388.949L388.053 14H385.223L389.846 1.04492ZM404.875 12.0664C405.948 12.0664 406.797 11.6709 407.424 10.8799C408.057 10.0889 408.373 8.96387 408.373 7.50488C408.373 6.05176 408.057 4.92969 407.424 4.13867C406.797 3.3418 405.948 2.94336 404.875 2.94336C403.803 2.94336 402.948 3.33887 402.309 4.12988C401.67 4.9209 401.351 6.0459 401.351 7.50488C401.351 8.96387 401.67 10.0889 402.309 10.8799C402.948 11.6709 403.803 12.0664 404.875 12.0664ZM411.08 7.50488C411.08 9.83105 410.427 11.6123 409.12 12.8486C408.142 13.8564 406.727 14.3604 404.875 14.3604C403.024 14.3604 401.609 13.8564 400.63 12.8486C399.318 11.6123 398.661 9.83105 398.661 7.50488C398.661 5.13184 399.318 3.35059 400.63 2.16113C401.609 1.15332 403.024 0.649414 404.875 0.649414C406.727 0.649414 408.142 1.15332 409.12 2.16113C410.427 3.35059 411.08 5.13184 411.08 7.50488Z" fill="white"/>
<path d="M358.231 99.3054L358.231 42.5308" stroke="#999594" stroke-dasharray="3 3"/>
<circle cx="358.232" cy="37.11" r="6.36095" stroke="white" stroke-width="3"/>
<circle cx="358.232" cy="145.339" r="47.5" stroke="white" stroke-width="5"/>
<path d="M366.233 138.339H370.233C370.233 132.664 364.722 130.076 360.232 129.48V125.337H356.232V129.48C351.741 130.076 346.23 132.664 346.23 138.339C346.23 143.751 351.563 146.566 356.232 147.2V157.141C353.335 156.639 350.231 155.092 350.231 152.34H346.23C346.23 157.519 351.081 160.579 356.232 161.213V165.342H360.232V161.201C364.722 160.605 370.233 158.015 370.233 152.34C370.233 146.666 364.722 144.077 360.232 143.481V133.538C362.892 134.016 366.233 135.42 366.233 138.339V138.339ZM350.231 138.339C350.231 135.42 353.571 134.016 356.232 133.538V143.137C353.489 142.631 350.231 141.133 350.231 138.339ZM366.233 152.34C366.233 155.259 362.892 156.663 360.232 157.141V147.54C362.892 148.018 366.233 149.422 366.233 152.34V152.34Z" fill="white"/>
<path d="M1.96094 1.04492H4.71191V9.00781C4.71191 9.89844 4.81738 10.5488 5.02832 10.959C5.35645 11.6855 6.07129 12.0488 7.17285 12.0488C8.26855 12.0488 8.98047 11.6855 9.30859 10.959C9.51953 10.5488 9.625 9.89844 9.625 9.00781V1.04492H12.376V9.00781C12.376 10.3848 12.1621 11.457 11.7344 12.2246C10.9375 13.6309 9.41699 14.334 7.17285 14.334C4.92871 14.334 3.40527 13.6309 2.60254 12.2246C2.1748 11.457 1.96094 10.3848 1.96094 9.00781V1.04492ZM19.9697 4.19141C20.0166 4.19141 20.0547 4.19434 20.084 4.2002C20.1191 4.2002 20.1924 4.20312 20.3037 4.20898V6.77539C20.1455 6.75781 20.0049 6.74609 19.8818 6.74023C19.7588 6.73438 19.6592 6.73145 19.583 6.73145C18.5752 6.73145 17.8984 7.05957 17.5527 7.71582C17.3594 8.08496 17.2627 8.65332 17.2627 9.4209V14H14.7402V4.41992H17.1309V6.08984C17.5176 5.45117 17.8545 5.01465 18.1416 4.78027C18.6104 4.3877 19.2197 4.19141 19.9697 4.19141ZM27.0625 9.3418C26.9043 9.44141 26.7432 9.52344 26.5791 9.58789C26.4209 9.64648 26.2012 9.70215 25.9199 9.75488L25.3574 9.86035C24.8301 9.9541 24.4521 10.0684 24.2236 10.2031C23.8369 10.4316 23.6436 10.7861 23.6436 11.2666C23.6436 11.6943 23.7607 12.0049 23.9951 12.1982C24.2354 12.3857 24.5254 12.4795 24.8652 12.4795C25.4043 12.4795 25.8994 12.3213 26.3506 12.0049C26.8076 11.6885 27.0449 11.1113 27.0625 10.2734V9.3418ZM25.542 8.17285C26.0049 8.11426 26.3359 8.04102 26.5352 7.95312C26.8926 7.80078 27.0713 7.56348 27.0713 7.24121C27.0713 6.84863 26.9336 6.5791 26.6582 6.43262C26.3887 6.28027 25.9902 6.2041 25.4629 6.2041C24.8711 6.2041 24.4521 6.35059 24.2061 6.64355C24.0303 6.86035 23.9131 7.15332 23.8545 7.52246H21.4375C21.4902 6.68457 21.7246 5.99609 22.1406 5.45703C22.8027 4.61328 23.9395 4.19141 25.5508 4.19141C26.5996 4.19141 27.5312 4.39941 28.3457 4.81543C29.1602 5.23145 29.5674 6.0166 29.5674 7.1709V11.5654C29.5674 11.8701 29.5732 12.2393 29.585 12.6729C29.6025 13.001 29.6523 13.2236 29.7344 13.3408C29.8164 13.458 29.9395 13.5547 30.1035 13.6309V14H27.3789C27.3027 13.8066 27.25 13.625 27.2207 13.4551C27.1914 13.2852 27.168 13.0918 27.1504 12.875C26.8047 13.25 26.4062 13.5693 25.9551 13.833C25.416 14.1436 24.8066 14.2988 24.127 14.2988C23.2598 14.2988 22.542 14.0527 21.9736 13.5605C21.4111 13.0625 21.1299 12.3594 21.1299 11.4512C21.1299 10.2734 21.584 9.4209 22.4922 8.89355C22.9902 8.60645 23.7227 8.40137 24.6895 8.27832L25.542 8.17285ZM37.1084 4.19141C38.0986 4.19141 38.9072 4.45215 39.5342 4.97363C40.167 5.48926 40.4834 6.34766 40.4834 7.54883V14H37.917V8.17285C37.917 7.66895 37.8496 7.28223 37.7148 7.0127C37.4688 6.52051 37 6.27441 36.3086 6.27441C35.459 6.27441 34.876 6.63477 34.5596 7.35547C34.3955 7.73633 34.3135 8.22266 34.3135 8.81445V14H31.8174V4.4375H34.2344V5.83496C34.5566 5.34277 34.8613 4.98828 35.1484 4.77148C35.6641 4.38477 36.3174 4.19141 37.1084 4.19141ZM45.2998 4.41992V10.1943C45.2998 10.7393 45.3643 11.1494 45.4932 11.4248C45.7217 11.9111 46.1699 12.1543 46.8379 12.1543C47.6934 12.1543 48.2793 11.8086 48.5957 11.1172C48.7598 10.7422 48.8418 10.2471 48.8418 9.63184V4.41992H51.3818V14H48.9473V12.6465C48.9238 12.6758 48.8652 12.7637 48.7715 12.9102C48.6777 13.0566 48.5664 13.1855 48.4375 13.2969C48.0449 13.6484 47.6641 13.8887 47.2949 14.0176C46.9316 14.1465 46.5039 14.2109 46.0117 14.2109C44.5938 14.2109 43.6387 13.7012 43.1465 12.6816C42.8711 12.1191 42.7334 11.29 42.7334 10.1943V4.41992H45.2998ZM55.7588 10.9414C55.8115 11.3867 55.9258 11.7031 56.1016 11.8906C56.4121 12.2246 56.9863 12.3916 57.8242 12.3916C58.3164 12.3916 58.7061 12.3184 58.9932 12.1719C59.2861 12.0254 59.4326 11.8057 59.4326 11.5127C59.4326 11.2314 59.3154 11.0176 59.0811 10.8711C58.8467 10.7246 57.9766 10.4727 56.4707 10.1152C55.3867 9.8457 54.6221 9.50879 54.1768 9.10449C53.7314 8.70605 53.5088 8.13184 53.5088 7.38184C53.5088 6.49707 53.8545 5.73828 54.5459 5.10547C55.2432 4.4668 56.2217 4.14746 57.4814 4.14746C58.6768 4.14746 59.6494 4.3877 60.3994 4.86816C61.1553 5.34277 61.5889 6.16602 61.7002 7.33789H59.1953C59.1602 7.01562 59.0693 6.76074 58.9229 6.57324C58.6475 6.2334 58.1787 6.06348 57.5166 6.06348C56.9717 6.06348 56.582 6.14844 56.3477 6.31836C56.1191 6.48828 56.0049 6.6875 56.0049 6.91602C56.0049 7.20312 56.1279 7.41113 56.374 7.54004C56.6201 7.6748 57.4902 7.90625 58.9844 8.23438C59.9805 8.46875 60.7275 8.82324 61.2256 9.29785C61.7178 9.77832 61.9639 10.3789 61.9639 11.0996C61.9639 12.0488 61.6094 12.8252 60.9004 13.4287C60.1973 14.0264 59.1074 14.3252 57.6309 14.3252C56.125 14.3252 55.0117 14.0088 54.291 13.376C53.5762 12.7373 53.2188 11.9258 53.2188 10.9414H55.7588ZM71.667 3.29492V11.75H74.1631C75.4404 11.75 76.3311 11.1201 76.835 9.86035C77.1104 9.16895 77.248 8.3457 77.248 7.39062C77.248 6.07227 77.04 5.06152 76.624 4.3584C76.2139 3.64941 75.3936 3.29492 74.1631 3.29492H71.667ZM74.6201 1.04492C75.4229 1.05664 76.0908 1.15039 76.624 1.32617C77.5322 1.625 78.2676 2.17285 78.8301 2.96973C79.2812 3.61426 79.5889 4.31152 79.7529 5.06152C79.917 5.81152 79.999 6.52637 79.999 7.20605C79.999 8.92871 79.6533 10.3877 78.9619 11.583C78.0244 13.1943 76.5771 14 74.6201 14H69.0391V1.04492H74.6201ZM91.627 3.33887H84.7715V6.08984H91.0645V8.33984H84.7715V11.6709H91.9434V14H82.126V1.04492H91.627V3.33887ZM96.1182 14H92.9717L97.1377 7.39941L93.1738 1.04492H96.4082L98.7197 5.25488L101.093 1.04492H104.222L100.258 7.29395L104.468 14H101.181L98.7197 9.58789L96.1182 14Z" fill="white"/>
<path d="M50.6337 99.3054L50.6337 42.5308" stroke="#999594" stroke-dasharray="3 3"/>
<circle cx="50.6338" cy="37.11" r="6.36095" stroke="white" stroke-width="3"/>
<circle cx="50.6338" cy="145.339" r="47.5" stroke="white" stroke-width="5"/>
<path d="M64.1055 147.328L54.1154 141.56L51.9904 145.241C50.484 147.85 47.1354 148.747 44.5261 147.241C41.9169 145.734 41.0196 142.386 42.5261 139.777L47.1403 131.785L41.3949 131.885C39.6901 131.909 38.1214 132.834 37.2715 134.307L35.4766 137.415L28.4655 137.416C27.126 137.414 26.034 138.501 26.0383 139.844L26.037 151.99C26.0348 153.329 27.1256 154.415 28.4652 154.417L37.5264 154.417L46.5044 159.6C48.8245 160.94 51.7998 160.142 53.1393 157.822L54.1909 158.429C55.3542 159.101 56.8367 158.704 57.5083 157.54L59.9369 153.334L60.4627 153.638C61.3368 154.142 62.4461 153.845 62.9508 152.971L64.7722 149.816C65.2769 148.942 64.9796 147.833 64.1055 147.328ZM75.2322 150.475L75.2335 138.33C75.2357 136.99 74.1449 135.905 72.8054 135.902L63.7441 135.902L57.027 132.024C56.2383 131.569 55.3404 131.349 54.4309 131.376L51.4361 131.478C50.5982 131.502 49.8393 131.967 49.4219 132.69L44.6293 140.991C43.7907 142.443 44.2879 144.299 45.7404 145.138C47.1929 145.976 49.0486 145.479 49.8872 144.027L53.2265 138.243L65.3198 145.225C67.3507 146.397 68.0479 149 66.8754 151.03L65.7939 152.904L72.805 152.903C74.1483 152.898 75.23 151.814 75.2322 150.475Z" fill="white"/>
<path d="M511.693 195.339L511.693 252.114" stroke="#999594" stroke-dasharray="3 3"/>
<circle cx="511.693" cy="257.535" r="6.36095" transform="rotate(180 511.693 257.535)" stroke="#1467C6" stroke-width="3"/>
<path d="M501.002 131.976C499.585 131.976 498.225 132.539 497.223 133.542C496.22 134.544 495.657 135.904 495.657 137.321V137.859L511.693 146.494L527.729 137.861V137.321C527.729 135.904 527.166 134.544 526.163 133.542C525.161 132.539 523.801 131.976 522.383 131.976H501.002Z" fill="#1467C6"/>
<path d="M527.729 140.895L512.326 149.188C512.132 149.293 511.914 149.348 511.693 149.348C511.472 149.348 511.254 149.293 511.059 149.188L495.657 140.895V153.357C495.657 154.775 496.22 156.135 497.223 157.137C498.225 158.139 499.585 158.703 501.002 158.703H522.383C523.801 158.703 525.161 158.139 526.163 157.137C527.166 156.135 527.729 154.775 527.729 153.357V140.895Z" fill="#1467C6"/>
<path d="M432.566 287.045H436.459V300H433.937V291.237C433.937 290.985 433.94 290.634 433.946 290.183C433.952 289.726 433.955 289.374 433.955 289.128L431.502 300H428.875L426.44 289.128C426.44 289.374 426.443 289.726 426.449 290.183C426.455 290.634 426.458 290.985 426.458 291.237V300H423.935V287.045H427.873L430.228 297.231L432.566 287.045ZM444.053 295.342C443.895 295.441 443.734 295.523 443.57 295.588C443.412 295.646 443.192 295.702 442.911 295.755L442.348 295.86C441.821 295.954 441.443 296.068 441.214 296.203C440.828 296.432 440.634 296.786 440.634 297.267C440.634 297.694 440.751 298.005 440.986 298.198C441.226 298.386 441.516 298.479 441.856 298.479C442.395 298.479 442.89 298.321 443.341 298.005C443.798 297.688 444.036 297.111 444.053 296.273V295.342ZM442.533 294.173C442.996 294.114 443.327 294.041 443.526 293.953C443.883 293.801 444.062 293.563 444.062 293.241C444.062 292.849 443.924 292.579 443.649 292.433C443.379 292.28 442.981 292.204 442.454 292.204C441.862 292.204 441.443 292.351 441.197 292.644C441.021 292.86 440.904 293.153 440.845 293.522H438.428C438.481 292.685 438.715 291.996 439.131 291.457C439.793 290.613 440.93 290.191 442.542 290.191C443.59 290.191 444.522 290.399 445.336 290.815C446.151 291.231 446.558 292.017 446.558 293.171V297.565C446.558 297.87 446.564 298.239 446.576 298.673C446.593 299.001 446.643 299.224 446.725 299.341C446.807 299.458 446.93 299.555 447.094 299.631V300H444.37C444.293 299.807 444.241 299.625 444.211 299.455C444.182 299.285 444.159 299.092 444.141 298.875C443.795 299.25 443.397 299.569 442.946 299.833C442.407 300.144 441.797 300.299 441.118 300.299C440.25 300.299 439.533 300.053 438.964 299.561C438.402 299.062 438.121 298.359 438.121 297.451C438.121 296.273 438.575 295.421 439.483 294.894C439.981 294.606 440.713 294.401 441.68 294.278L442.533 294.173ZM453.994 290.191C454.041 290.191 454.079 290.194 454.108 290.2C454.143 290.2 454.216 290.203 454.328 290.209V292.775C454.169 292.758 454.029 292.746 453.906 292.74C453.783 292.734 453.683 292.731 453.607 292.731C452.599 292.731 451.922 293.06 451.577 293.716C451.383 294.085 451.287 294.653 451.287 295.421V300H448.764V290.42H451.155V292.09C451.542 291.451 451.878 291.015 452.166 290.78C452.634 290.388 453.244 290.191 453.994 290.191ZM455.778 287.089H458.239V294.067L461.359 290.464H464.461L461.113 294.129L464.593 300H461.57L459.276 295.904L458.239 296.985V300H455.778V287.089ZM469.603 292.23C469.023 292.23 468.572 292.412 468.25 292.775C467.933 293.139 467.734 293.631 467.652 294.252H471.545C471.504 293.59 471.302 293.089 470.939 292.749C470.582 292.403 470.136 292.23 469.603 292.23ZM469.603 290.165C470.4 290.165 471.118 290.314 471.756 290.613C472.395 290.912 472.922 291.384 473.338 292.028C473.713 292.597 473.957 293.256 474.068 294.006C474.132 294.445 474.159 295.078 474.147 295.904H467.59C467.625 296.865 467.927 297.539 468.496 297.926C468.841 298.166 469.257 298.286 469.744 298.286C470.259 298.286 470.678 298.14 471 297.847C471.176 297.688 471.332 297.469 471.466 297.188H474.024C473.959 297.756 473.664 298.333 473.136 298.919C472.316 299.851 471.167 300.316 469.691 300.316C468.472 300.316 467.397 299.924 466.465 299.139C465.534 298.354 465.068 297.076 465.068 295.307C465.068 293.648 465.487 292.377 466.325 291.492C467.168 290.607 468.261 290.165 469.603 290.165ZM474.859 292.292V290.508H476.195V287.836H478.673V290.508H480.229V292.292H478.673V297.354C478.673 297.747 478.723 297.993 478.823 298.093C478.922 298.187 479.227 298.233 479.737 298.233C479.813 298.233 479.892 298.233 479.974 298.233C480.062 298.228 480.147 298.222 480.229 298.216V300.088L479.042 300.132C477.859 300.173 477.05 299.968 476.617 299.517C476.335 299.229 476.195 298.787 476.195 298.189V292.292H474.859ZM484.413 289.277H481.873V286.966H484.413V289.277ZM481.873 290.42H484.413V300H481.873V290.42ZM492.156 290.191C493.146 290.191 493.955 290.452 494.582 290.974C495.214 291.489 495.531 292.348 495.531 293.549V300H492.964V294.173C492.964 293.669 492.897 293.282 492.762 293.013C492.516 292.521 492.047 292.274 491.356 292.274C490.506 292.274 489.923 292.635 489.607 293.355C489.443 293.736 489.361 294.223 489.361 294.814V300H486.865V290.438H489.282V291.835C489.604 291.343 489.909 290.988 490.196 290.771C490.711 290.385 491.365 290.191 492.156 290.191ZM501.964 297.943C502.55 297.943 503.045 297.724 503.45 297.284C503.854 296.839 504.056 296.133 504.056 295.166C504.056 294.258 503.863 293.566 503.476 293.092C503.095 292.617 502.583 292.38 501.938 292.38C501.059 292.38 500.453 292.793 500.119 293.619C499.943 294.059 499.855 294.601 499.855 295.245C499.855 295.802 499.949 296.297 500.136 296.73C500.476 297.539 501.085 297.943 501.964 297.943ZM501.34 290.191C501.821 290.191 502.24 290.265 502.597 290.411C503.207 290.663 503.699 291.126 504.074 291.8V290.42H506.508V299.508C506.508 300.744 506.3 301.676 505.884 302.303C505.169 303.381 503.798 303.92 501.771 303.92C500.546 303.92 499.547 303.68 498.774 303.199C498 302.719 497.573 302.001 497.491 301.046H500.215C500.286 301.339 500.4 301.55 500.558 301.679C500.828 301.907 501.282 302.021 501.92 302.021C502.823 302.021 503.426 301.72 503.731 301.116C503.93 300.729 504.03 300.079 504.03 299.165V298.55C503.79 298.96 503.532 299.268 503.256 299.473C502.758 299.854 502.111 300.044 501.314 300.044C500.083 300.044 499.099 299.613 498.361 298.752C497.628 297.885 497.262 296.713 497.262 295.236C497.262 293.812 497.617 292.617 498.326 291.65C499.035 290.678 500.04 290.191 501.34 290.191ZM513.504 293.628C513.504 291.366 514.111 289.623 515.324 288.398C516.378 287.332 517.72 286.799 519.349 286.799C521.529 286.799 523.123 287.514 524.13 288.943C524.687 289.746 524.986 290.552 525.027 291.36H522.32C522.144 290.739 521.918 290.271 521.643 289.954C521.151 289.392 520.421 289.11 519.455 289.11C518.47 289.11 517.694 289.509 517.125 290.306C516.557 291.097 516.273 292.219 516.273 293.672C516.273 295.125 516.572 296.215 517.169 296.941C517.773 297.662 518.538 298.022 519.463 298.022C520.413 298.022 521.136 297.712 521.634 297.091C521.91 296.757 522.138 296.256 522.32 295.588H525C524.766 297 524.166 298.148 523.199 299.033C522.238 299.918 521.004 300.36 519.499 300.36C517.635 300.36 516.17 299.763 515.104 298.567C514.038 297.366 513.504 295.72 513.504 293.628ZM532.155 295.342C531.997 295.441 531.835 295.523 531.671 295.588C531.513 295.646 531.293 295.702 531.012 295.755L530.45 295.86C529.922 295.954 529.544 296.068 529.316 296.203C528.929 296.432 528.736 296.786 528.736 297.267C528.736 297.694 528.853 298.005 529.087 298.198C529.328 298.386 529.618 298.479 529.958 298.479C530.497 298.479 530.992 298.321 531.443 298.005C531.9 297.688 532.137 297.111 532.155 296.273V295.342ZM530.634 294.173C531.097 294.114 531.428 294.041 531.627 293.953C531.985 293.801 532.164 293.563 532.164 293.241C532.164 292.849 532.026 292.579 531.75 292.433C531.481 292.28 531.083 292.204 530.555 292.204C529.963 292.204 529.544 292.351 529.298 292.644C529.123 292.86 529.005 293.153 528.947 293.522H526.53C526.583 292.685 526.817 291.996 527.233 291.457C527.895 290.613 529.032 290.191 530.643 290.191C531.692 290.191 532.624 290.399 533.438 290.815C534.252 291.231 534.66 292.017 534.66 293.171V297.565C534.66 297.87 534.666 298.239 534.677 298.673C534.695 299.001 534.745 299.224 534.827 299.341C534.909 299.458 535.032 299.555 535.196 299.631V300H532.471C532.395 299.807 532.342 299.625 532.313 299.455C532.284 299.285 532.26 299.092 532.243 298.875C531.897 299.25 531.499 299.569 531.047 299.833C530.508 300.144 529.899 300.299 529.219 300.299C528.352 300.299 527.634 300.053 527.066 299.561C526.503 299.062 526.222 298.359 526.222 297.451C526.222 296.273 526.676 295.421 527.584 294.894C528.083 294.606 528.815 294.401 529.782 294.278L530.634 294.173ZM547.597 290.209C548.019 290.209 548.435 290.291 548.845 290.455C549.255 290.619 549.627 290.906 549.961 291.316C550.231 291.65 550.413 292.061 550.506 292.547C550.565 292.869 550.594 293.341 550.594 293.962L550.577 300H548.01V293.9C548.01 293.537 547.952 293.238 547.834 293.004C547.612 292.559 547.202 292.336 546.604 292.336C545.913 292.336 545.435 292.623 545.171 293.197C545.037 293.502 544.969 293.868 544.969 294.296V300H542.447V294.296C542.447 293.728 542.388 293.314 542.271 293.057C542.06 292.594 541.647 292.362 541.032 292.362C540.317 292.362 539.836 292.594 539.59 293.057C539.456 293.32 539.388 293.713 539.388 294.234V300H536.848V290.438H539.283V291.835C539.593 291.337 539.886 290.982 540.162 290.771C540.648 290.396 541.278 290.209 542.051 290.209C542.784 290.209 543.375 290.37 543.827 290.692C544.19 290.991 544.465 291.375 544.653 291.844C544.981 291.281 545.388 290.868 545.875 290.604C546.39 290.341 546.964 290.209 547.597 290.209ZM559.506 295.21C559.506 294.472 559.336 293.818 558.997 293.25C558.663 292.682 558.118 292.397 557.362 292.397C556.454 292.397 555.83 292.828 555.49 293.689C555.314 294.146 555.226 294.727 555.226 295.43C555.226 296.543 555.522 297.325 556.114 297.776C556.465 298.04 556.881 298.172 557.362 298.172C558.059 298.172 558.589 297.902 558.953 297.363C559.322 296.824 559.506 296.106 559.506 295.21ZM558.083 290.209C559.202 290.209 560.148 290.622 560.921 291.448C561.701 292.274 562.09 293.487 562.09 295.087C562.09 296.774 561.709 298.061 560.948 298.945C560.192 299.83 559.216 300.272 558.021 300.272C557.259 300.272 556.626 300.082 556.123 299.701C555.847 299.49 555.578 299.183 555.314 298.778V303.771H552.835V290.42H555.235V291.835C555.504 291.419 555.792 291.091 556.096 290.851C556.653 290.423 557.315 290.209 558.083 290.209ZM569.192 295.342C569.034 295.441 568.873 295.523 568.708 295.588C568.55 295.646 568.331 295.702 568.049 295.755L567.487 295.86C566.959 295.954 566.582 296.068 566.353 296.203C565.966 296.432 565.773 296.786 565.773 297.267C565.773 297.694 565.89 298.005 566.125 298.198C566.365 298.386 566.655 298.479 566.995 298.479C567.534 298.479 568.029 298.321 568.48 298.005C568.937 297.688 569.174 297.111 569.192 296.273V295.342ZM567.671 294.173C568.134 294.114 568.465 294.041 568.665 293.953C569.022 293.801 569.201 293.563 569.201 293.241C569.201 292.849 569.063 292.579 568.788 292.433C568.518 292.28 568.12 292.204 567.592 292.204C567 292.204 566.582 292.351 566.335 292.644C566.16 292.86 566.042 293.153 565.984 293.522H563.567C563.62 292.685 563.854 291.996 564.27 291.457C564.932 290.613 566.069 290.191 567.68 290.191C568.729 290.191 569.661 290.399 570.475 290.815C571.29 291.231 571.697 292.017 571.697 293.171V297.565C571.697 297.87 571.703 298.239 571.714 298.673C571.732 299.001 571.782 299.224 571.864 299.341C571.946 299.458 572.069 299.555 572.233 299.631V300H569.508C569.432 299.807 569.379 299.625 569.35 299.455C569.321 299.285 569.297 299.092 569.28 298.875C568.934 299.25 568.536 299.569 568.084 299.833C567.545 300.144 566.936 300.299 566.256 300.299C565.389 300.299 564.671 300.053 564.103 299.561C563.541 299.062 563.259 298.359 563.259 297.451C563.259 296.273 563.713 295.421 564.622 294.894C565.12 294.606 565.852 294.401 566.819 294.278L567.671 294.173ZM576.504 289.277H573.964V286.966H576.504V289.277ZM573.964 290.42H576.504V300H573.964V290.42ZM583.052 297.943C583.638 297.943 584.133 297.724 584.538 297.284C584.942 296.839 585.144 296.133 585.144 295.166C585.144 294.258 584.951 293.566 584.564 293.092C584.183 292.617 583.67 292.38 583.026 292.38C582.147 292.38 581.541 292.793 581.207 293.619C581.031 294.059 580.943 294.601 580.943 295.245C580.943 295.802 581.037 296.297 581.224 296.73C581.564 297.539 582.173 297.943 583.052 297.943ZM582.428 290.191C582.909 290.191 583.328 290.265 583.685 290.411C584.294 290.663 584.787 291.126 585.162 291.8V290.42H587.596V299.508C587.596 300.744 587.388 301.676 586.972 302.303C586.257 303.381 584.886 303.92 582.859 303.92C581.634 303.92 580.635 303.68 579.862 303.199C579.088 302.719 578.661 302.001 578.579 301.046H581.303C581.374 301.339 581.488 301.55 581.646 301.679C581.916 301.907 582.37 302.021 583.008 302.021C583.911 302.021 584.514 301.72 584.819 301.116C585.018 300.729 585.118 300.079 585.118 299.165V298.55C584.877 298.96 584.62 299.268 584.344 299.473C583.846 299.854 583.199 300.044 582.402 300.044C581.171 300.044 580.187 299.613 579.449 298.752C578.716 297.885 578.35 296.713 578.35 295.236C578.35 293.812 578.705 292.617 579.414 291.65C580.123 290.678 581.127 290.191 582.428 290.191ZM595.251 290.191C596.242 290.191 597.05 290.452 597.677 290.974C598.31 291.489 598.626 292.348 598.626 293.549V300H596.06V294.173C596.06 293.669 595.993 293.282 595.858 293.013C595.612 292.521 595.143 292.274 594.452 292.274C593.602 292.274 593.019 292.635 592.703 293.355C592.539 293.736 592.457 294.223 592.457 294.814V300H589.96V290.438H592.377V291.835C592.7 291.343 593.004 290.988 593.292 290.771C593.807 290.385 594.46 290.191 595.251 290.191Z" fill="#1467C6"/>
<circle cx="511.693" cy="145.339" r="47.5" stroke="#1467C6" stroke-width="5"/>
<path d="M204.407 195.339L204.407 252.114" stroke="#999594" stroke-dasharray="3 3"/>
<circle cx="204.407" cy="257.535" r="6.36095" transform="rotate(180 204.407 257.535)" stroke="#1467C6" stroke-width="3"/>
<circle cx="204.407" cy="145.34" r="18.1315" stroke="#1467C6" stroke-width="2"/>
<path d="M200.556 134.205C199.984 135.639 199.555 137.125 199.276 138.644H209.538C209.259 137.125 208.829 135.639 208.256 134.205C207.681 132.803 207.017 131.729 206.328 131.024C205.643 130.319 204.995 130.034 204.407 130.034C203.82 130.034 203.171 130.319 202.486 131.024C201.798 131.731 201.134 132.803 200.556 134.205Z" fill="#1467C6"/>
<path d="M200.37 130.572C199.772 131.387 199.242 132.372 198.788 133.476C198.176 134.968 197.679 136.717 197.33 138.644H190.64C191.596 136.684 192.958 134.951 194.636 133.559C196.314 132.167 198.27 131.149 200.372 130.572H200.37Z" fill="#1467C6"/>
<path d="M208.444 130.572C209.043 131.387 209.573 132.372 210.026 133.476C210.638 134.968 211.136 136.717 211.484 138.644H218.174C217.219 136.684 215.856 134.951 214.178 133.559C212.5 132.167 210.545 131.149 208.442 130.572H208.444Z" fill="#1467C6"/>
<path d="M218.951 140.557H211.773C211.96 142.078 212.06 143.683 212.06 145.34C212.06 146.996 211.96 148.601 211.773 150.122H218.951C219.457 148.579 219.714 146.964 219.712 145.34C219.712 143.669 219.444 142.062 218.951 140.557Z" fill="#1467C6"/>
<path d="M218.174 152.036H211.484C211.136 153.962 210.64 155.713 210.026 157.201C209.618 158.23 209.086 159.206 208.444 160.107C210.546 159.53 212.501 158.512 214.179 157.12C215.857 155.728 217.219 153.995 218.174 152.036V152.036Z" fill="#1467C6"/>
<path d="M204.407 160.645C204.995 160.645 205.643 160.36 206.328 159.656C207.017 158.948 207.681 157.876 208.256 156.474C208.829 155.041 209.259 153.554 209.538 152.036H199.276C199.598 153.706 200.036 155.206 200.558 156.474C201.134 157.876 201.798 158.95 202.486 159.656C203.171 160.36 203.82 160.645 204.407 160.645V160.645Z" fill="#1467C6"/>
<path d="M200.37 160.107C198.269 159.53 196.314 158.512 194.636 157.12C192.959 155.728 191.597 153.995 190.642 152.036H197.332C197.68 153.962 198.176 155.713 198.79 157.201C199.243 158.307 199.773 159.292 200.374 160.107H200.37Z" fill="#1467C6"/>
<path d="M189.863 150.122H197.042C196.849 148.535 196.753 146.938 196.755 145.34C196.755 143.683 196.854 142.078 197.042 140.557H189.863C189.357 142.1 189.1 143.715 189.102 145.34C189.102 147.01 189.37 148.617 189.863 150.122Z" fill="#1467C6"/>
<path d="M198.668 145.34C198.668 143.666 198.775 142.058 198.97 140.557H209.844C210.039 142.058 210.147 143.666 210.147 145.34C210.147 147.014 210.039 148.619 209.844 150.122H198.97C198.766 148.536 198.665 146.939 198.668 145.34V145.34Z" fill="#1467C6"/>
<path d="M125.921 291.088C125.716 290.203 125.215 289.585 124.418 289.233C123.973 289.04 123.478 288.943 122.933 288.943C121.89 288.943 121.031 289.339 120.357 290.13C119.689 290.915 119.355 292.099 119.355 293.681C119.355 295.274 119.719 296.402 120.445 297.064C121.172 297.727 121.998 298.058 122.924 298.058C123.832 298.058 124.576 297.797 125.156 297.275C125.736 296.748 126.094 296.06 126.229 295.21H123.231V293.048H128.628V300H126.835L126.562 298.383C126.041 298.998 125.572 299.432 125.156 299.684C124.441 300.123 123.562 300.343 122.52 300.343C120.803 300.343 119.396 299.748 118.301 298.559C117.158 297.363 116.587 295.729 116.587 293.654C116.587 291.557 117.164 289.875 118.318 288.609C119.473 287.344 120.999 286.711 122.897 286.711C124.544 286.711 125.865 287.13 126.861 287.968C127.863 288.8 128.438 289.84 128.584 291.088H125.921ZM136.222 290.191C136.269 290.191 136.307 290.194 136.336 290.2C136.371 290.2 136.444 290.203 136.556 290.209V292.775C136.397 292.758 136.257 292.746 136.134 292.74C136.011 292.734 135.911 292.731 135.835 292.731C134.827 292.731 134.15 293.06 133.805 293.716C133.611 294.085 133.515 294.653 133.515 295.421V300H130.992V290.42H133.383V292.09C133.77 291.451 134.106 291.015 134.394 290.78C134.862 290.388 135.472 290.191 136.222 290.191ZM142.33 298.233C143.062 298.233 143.625 297.973 144.018 297.451C144.41 296.93 144.606 296.188 144.606 295.228C144.606 294.267 144.41 293.528 144.018 293.013C143.625 292.491 143.062 292.23 142.33 292.23C141.598 292.23 141.032 292.491 140.634 293.013C140.241 293.528 140.045 294.267 140.045 295.228C140.045 296.188 140.241 296.93 140.634 297.451C141.032 297.973 141.598 298.233 142.33 298.233ZM147.234 295.228C147.234 296.634 146.83 297.838 146.021 298.84C145.213 299.836 143.985 300.334 142.339 300.334C140.692 300.334 139.465 299.836 138.656 298.84C137.848 297.838 137.443 296.634 137.443 295.228C137.443 293.845 137.848 292.646 138.656 291.633C139.465 290.619 140.692 290.112 142.339 290.112C143.985 290.112 145.213 290.619 146.021 291.633C146.83 292.646 147.234 293.845 147.234 295.228ZM153.554 290.42H156.094L157.553 297.319L159.047 290.42H161.657L158.88 300H156.305L154.802 293.021L153.281 300H150.68L147.99 290.42H150.68L152.174 297.293L153.554 290.42ZM165.621 289.277H163.081V286.966H165.621V289.277ZM163.081 290.42H165.621V300H163.081V290.42ZM173.364 290.191C174.354 290.191 175.163 290.452 175.79 290.974C176.423 291.489 176.739 292.348 176.739 293.549V300H174.173V294.173C174.173 293.669 174.105 293.282 173.971 293.013C173.725 292.521 173.256 292.274 172.564 292.274C171.715 292.274 171.132 292.635 170.815 293.355C170.651 293.736 170.569 294.223 170.569 294.814V300H168.073V290.438H170.49V291.835C170.812 291.343 171.117 290.988 171.404 290.771C171.92 290.385 172.573 290.191 173.364 290.191ZM183.173 297.943C183.759 297.943 184.254 297.724 184.658 297.284C185.062 296.839 185.265 296.133 185.265 295.166C185.265 294.258 185.071 293.566 184.685 293.092C184.304 292.617 183.791 292.38 183.146 292.38C182.268 292.38 181.661 292.793 181.327 293.619C181.151 294.059 181.063 294.601 181.063 295.245C181.063 295.802 181.157 296.297 181.345 296.73C181.685 297.539 182.294 297.943 183.173 297.943ZM182.549 290.191C183.029 290.191 183.448 290.265 183.806 290.411C184.415 290.663 184.907 291.126 185.282 291.8V290.42H187.717V299.508C187.717 300.744 187.509 301.676 187.093 302.303C186.378 303.381 185.007 303.92 182.979 303.92C181.755 303.92 180.756 303.68 179.982 303.199C179.209 302.719 178.781 302.001 178.699 301.046H181.424C181.494 301.339 181.608 301.55 181.767 301.679C182.036 301.907 182.49 302.021 183.129 302.021C184.031 302.021 184.635 301.72 184.939 301.116C185.139 300.729 185.238 300.079 185.238 299.165V298.55C184.998 298.96 184.74 299.268 184.465 299.473C183.967 299.854 183.319 300.044 182.522 300.044C181.292 300.044 180.308 299.613 179.569 298.752C178.837 297.885 178.471 296.713 178.471 295.236C178.471 293.812 178.825 292.617 179.534 291.65C180.243 290.678 181.248 290.191 182.549 290.191ZM194.713 293.628C194.713 291.366 195.319 289.623 196.532 288.398C197.587 287.332 198.929 286.799 200.558 286.799C202.737 286.799 204.331 287.514 205.339 288.943C205.896 289.746 206.194 290.552 206.235 291.36H203.528C203.353 290.739 203.127 290.271 202.852 289.954C202.359 289.392 201.63 289.11 200.663 289.11C199.679 289.11 198.902 289.509 198.334 290.306C197.766 291.097 197.481 292.219 197.481 293.672C197.481 295.125 197.78 296.215 198.378 296.941C198.981 297.662 199.746 298.022 200.672 298.022C201.621 298.022 202.345 297.712 202.843 297.091C203.118 296.757 203.347 296.256 203.528 295.588H206.209C205.975 297 205.374 298.148 204.407 299.033C203.446 299.918 202.213 300.36 200.707 300.36C198.844 300.36 197.379 299.763 196.312 298.567C195.246 297.366 194.713 295.72 194.713 293.628ZM212.379 298.233C213.111 298.233 213.674 297.973 214.066 297.451C214.459 296.93 214.655 296.188 214.655 295.228C214.655 294.267 214.459 293.528 214.066 293.013C213.674 292.491 213.111 292.23 212.379 292.23C211.646 292.23 211.081 292.491 210.683 293.013C210.29 293.528 210.094 294.267 210.094 295.228C210.094 296.188 210.29 296.93 210.683 297.451C211.081 297.973 211.646 298.233 212.379 298.233ZM217.283 295.228C217.283 296.634 216.879 297.838 216.07 298.84C215.262 299.836 214.034 300.334 212.388 300.334C210.741 300.334 209.514 299.836 208.705 298.84C207.896 297.838 207.492 296.634 207.492 295.228C207.492 293.845 207.896 292.646 208.705 291.633C209.514 290.619 210.741 290.112 212.388 290.112C214.034 290.112 215.262 290.619 216.07 291.633C216.879 292.646 217.283 293.845 217.283 295.228ZM229.79 290.209C230.212 290.209 230.628 290.291 231.038 290.455C231.448 290.619 231.82 290.906 232.154 291.316C232.424 291.65 232.605 292.061 232.699 292.547C232.758 292.869 232.787 293.341 232.787 293.962L232.77 300H230.203V293.9C230.203 293.537 230.145 293.238 230.027 293.004C229.805 292.559 229.395 292.336 228.797 292.336C228.105 292.336 227.628 292.623 227.364 293.197C227.229 293.502 227.162 293.868 227.162 294.296V300H224.64V294.296C224.64 293.728 224.581 293.314 224.464 293.057C224.253 292.594 223.84 292.362 223.225 292.362C222.51 292.362 222.029 292.594 221.783 293.057C221.648 293.32 221.581 293.713 221.581 294.234V300H219.041V290.438H221.476V291.835C221.786 291.337 222.079 290.982 222.354 290.771C222.841 290.396 223.471 290.209 224.244 290.209C224.977 290.209 225.568 290.37 226.02 290.692C226.383 290.991 226.658 291.375 226.846 291.844C227.174 291.281 227.581 290.868 228.067 290.604C228.583 290.341 229.157 290.209 229.79 290.209ZM245.804 290.209C246.226 290.209 246.642 290.291 247.052 290.455C247.462 290.619 247.834 290.906 248.168 291.316C248.438 291.65 248.619 292.061 248.713 292.547C248.771 292.869 248.801 293.341 248.801 293.962L248.783 300H246.217V293.9C246.217 293.537 246.158 293.238 246.041 293.004C245.818 292.559 245.408 292.336 244.811 292.336C244.119 292.336 243.642 292.623 243.378 293.197C243.243 293.502 243.176 293.868 243.176 294.296V300H240.653V294.296C240.653 293.728 240.595 293.314 240.478 293.057C240.267 292.594 239.854 292.362 239.238 292.362C238.523 292.362 238.043 292.594 237.797 293.057C237.662 293.32 237.595 293.713 237.595 294.234V300H235.055V290.438H237.489V291.835C237.8 291.337 238.093 290.982 238.368 290.771C238.854 290.396 239.484 290.209 240.258 290.209C240.99 290.209 241.582 290.37 242.033 290.692C242.396 290.991 242.672 291.375 242.859 291.844C243.188 291.281 243.595 290.868 244.081 290.604C244.597 290.341 245.171 290.209 245.804 290.209ZM253.608 290.42V296.194C253.608 296.739 253.673 297.149 253.802 297.425C254.03 297.911 254.479 298.154 255.146 298.154C256.002 298.154 256.588 297.809 256.904 297.117C257.068 296.742 257.15 296.247 257.15 295.632V290.42H259.69V300H257.256V298.646C257.232 298.676 257.174 298.764 257.08 298.91C256.986 299.057 256.875 299.186 256.746 299.297C256.354 299.648 255.973 299.889 255.604 300.018C255.24 300.146 254.812 300.211 254.32 300.211C252.902 300.211 251.947 299.701 251.455 298.682C251.18 298.119 251.042 297.29 251.042 296.194V290.42H253.608ZM267.425 290.191C268.415 290.191 269.224 290.452 269.851 290.974C270.483 291.489 270.8 292.348 270.8 293.549V300H268.233V294.173C268.233 293.669 268.166 293.282 268.031 293.013C267.785 292.521 267.316 292.274 266.625 292.274C265.775 292.274 265.192 292.635 264.876 293.355C264.712 293.736 264.63 294.223 264.63 294.814V300H262.134V290.438H264.551V291.835C264.873 291.343 265.178 290.988 265.465 290.771C265.98 290.385 266.634 290.191 267.425 290.191ZM275.695 289.277H273.155V286.966H275.695V289.277ZM273.155 290.42H275.695V300H273.155V290.42ZM277.146 292.292V290.508H278.481V287.836H280.96V290.508H282.516V292.292H280.96V297.354C280.96 297.747 281.01 297.993 281.109 298.093C281.209 298.187 281.514 298.233 282.023 298.233C282.1 298.233 282.179 298.233 282.261 298.233C282.349 298.228 282.434 298.222 282.516 298.216V300.088L281.329 300.132C280.146 300.173 279.337 299.968 278.903 299.517C278.622 299.229 278.481 298.787 278.481 298.189V292.292H277.146ZM284.511 301.837L284.827 301.854C285.073 301.866 285.308 301.857 285.53 301.828C285.753 301.799 285.94 301.731 286.093 301.626C286.239 301.526 286.374 301.318 286.497 301.002C286.626 300.686 286.679 300.492 286.655 300.422L283.14 290.42H285.926L288.018 297.486L289.995 290.42H292.658L289.371 299.842C288.738 301.658 288.237 302.783 287.868 303.217C287.499 303.656 286.761 303.876 285.653 303.876C285.431 303.876 285.252 303.873 285.117 303.867C284.982 303.867 284.78 303.858 284.511 303.841V301.837Z" fill="#1467C6"/>
<circle cx="204.407" cy="145.339" r="47.5" stroke="#1467C6" stroke-width="5"/>
<path d="M818.935 195.339L818.935 252.114" stroke="#999594" stroke-dasharray="3 3"/>
<circle cx="818.934" cy="257.535" r="6.36095" transform="rotate(180 818.934 257.535)" stroke="#1467C6" stroke-width="3"/>
<path d="M764.259 287.045H767.01V295.008C767.01 295.898 767.115 296.549 767.326 296.959C767.654 297.686 768.369 298.049 769.471 298.049C770.566 298.049 771.278 297.686 771.606 296.959C771.817 296.549 771.923 295.898 771.923 295.008V287.045H774.674V295.008C774.674 296.385 774.46 297.457 774.032 298.225C773.235 299.631 771.715 300.334 769.471 300.334C767.227 300.334 765.703 299.631 764.9 298.225C764.473 297.457 764.259 296.385 764.259 295.008V287.045ZM782.268 290.191C782.314 290.191 782.353 290.194 782.382 290.2C782.417 290.2 782.49 290.203 782.602 290.209V292.775C782.443 292.758 782.303 292.746 782.18 292.74C782.057 292.734 781.957 292.731 781.881 292.731C780.873 292.731 780.196 293.06 779.851 293.716C779.657 294.085 779.561 294.653 779.561 295.421V300H777.038V290.42H779.429V292.09C779.815 291.451 780.152 291.015 780.439 290.78C780.908 290.388 781.518 290.191 782.268 290.191ZM789.36 295.342C789.202 295.441 789.041 295.523 788.877 295.588C788.719 295.646 788.499 295.702 788.218 295.755L787.655 295.86C787.128 295.954 786.75 296.068 786.521 296.203C786.135 296.432 785.941 296.786 785.941 297.267C785.941 297.694 786.059 298.005 786.293 298.198C786.533 298.386 786.823 298.479 787.163 298.479C787.702 298.479 788.197 298.321 788.648 298.005C789.105 297.688 789.343 297.111 789.36 296.273V295.342ZM787.84 294.173C788.303 294.114 788.634 294.041 788.833 293.953C789.19 293.801 789.369 293.563 789.369 293.241C789.369 292.849 789.231 292.579 788.956 292.433C788.687 292.28 788.288 292.204 787.761 292.204C787.169 292.204 786.75 292.351 786.504 292.644C786.328 292.86 786.211 293.153 786.152 293.522H783.735C783.788 292.685 784.022 291.996 784.438 291.457C785.101 290.613 786.237 290.191 787.849 290.191C788.897 290.191 789.829 290.399 790.644 290.815C791.458 291.231 791.865 292.017 791.865 293.171V297.565C791.865 297.87 791.871 298.239 791.883 298.673C791.9 299.001 791.95 299.224 792.032 299.341C792.114 299.458 792.237 299.555 792.401 299.631V300H789.677C789.601 299.807 789.548 299.625 789.519 299.455C789.489 299.285 789.466 299.092 789.448 298.875C789.103 299.25 788.704 299.569 788.253 299.833C787.714 300.144 787.104 300.299 786.425 300.299C785.558 300.299 784.84 300.053 784.271 299.561C783.709 299.062 783.428 298.359 783.428 297.451C783.428 296.273 783.882 295.421 784.79 294.894C785.288 294.606 786.021 294.401 786.987 294.278L787.84 294.173ZM799.406 290.191C800.396 290.191 801.205 290.452 801.832 290.974C802.465 291.489 802.781 292.348 802.781 293.549V300H800.215V294.173C800.215 293.669 800.147 293.282 800.013 293.013C799.767 292.521 799.298 292.274 798.606 292.274C797.757 292.274 797.174 292.635 796.857 293.355C796.693 293.736 796.611 294.223 796.611 294.814V300H794.115V290.438H796.532V291.835C796.854 291.343 797.159 290.988 797.446 290.771C797.962 290.385 798.615 290.191 799.406 290.191ZM807.598 290.42V296.194C807.598 296.739 807.662 297.149 807.791 297.425C808.02 297.911 808.468 298.154 809.136 298.154C809.991 298.154 810.577 297.809 810.894 297.117C811.058 296.742 811.14 296.247 811.14 295.632V290.42H813.68V300H811.245V298.646C811.222 298.676 811.163 298.764 811.069 298.91C810.976 299.057 810.864 299.186 810.735 299.297C810.343 299.648 809.962 299.889 809.593 300.018C809.229 300.146 808.802 300.211 808.31 300.211C806.892 300.211 805.937 299.701 805.444 298.682C805.169 298.119 805.031 297.29 805.031 296.194V290.42H807.598ZM818.057 296.941C818.109 297.387 818.224 297.703 818.399 297.891C818.71 298.225 819.284 298.392 820.122 298.392C820.614 298.392 821.004 298.318 821.291 298.172C821.584 298.025 821.73 297.806 821.73 297.513C821.73 297.231 821.613 297.018 821.379 296.871C821.145 296.725 820.274 296.473 818.769 296.115C817.685 295.846 816.92 295.509 816.475 295.104C816.029 294.706 815.807 294.132 815.807 293.382C815.807 292.497 816.152 291.738 816.844 291.105C817.541 290.467 818.52 290.147 819.779 290.147C820.975 290.147 821.947 290.388 822.697 290.868C823.453 291.343 823.887 292.166 823.998 293.338H821.493C821.458 293.016 821.367 292.761 821.221 292.573C820.945 292.233 820.477 292.063 819.814 292.063C819.27 292.063 818.88 292.148 818.646 292.318C818.417 292.488 818.303 292.688 818.303 292.916C818.303 293.203 818.426 293.411 818.672 293.54C818.918 293.675 819.788 293.906 821.282 294.234C822.278 294.469 823.025 294.823 823.523 295.298C824.016 295.778 824.262 296.379 824.262 297.1C824.262 298.049 823.907 298.825 823.198 299.429C822.495 300.026 821.405 300.325 819.929 300.325C818.423 300.325 817.31 300.009 816.589 299.376C815.874 298.737 815.517 297.926 815.517 296.941H818.057ZM831.337 287.062H840.521V289.339H834.026V292.318H839.713V294.568H834.026V300H831.337V287.062ZM844.635 290.42V296.194C844.635 296.739 844.699 297.149 844.828 297.425C845.057 297.911 845.505 298.154 846.173 298.154C847.028 298.154 847.614 297.809 847.931 297.117C848.095 296.742 848.177 296.247 848.177 295.632V290.42H850.717V300H848.282V298.646C848.259 298.676 848.2 298.764 848.106 298.91C848.013 299.057 847.901 299.186 847.772 299.297C847.38 299.648 846.999 299.889 846.63 300.018C846.267 300.146 845.839 300.211 845.347 300.211C843.929 300.211 842.974 299.701 842.481 298.682C842.206 298.119 842.068 297.29 842.068 296.194V290.42H844.635ZM858.451 290.191C859.441 290.191 860.25 290.452 860.877 290.974C861.51 291.489 861.826 292.348 861.826 293.549V300H859.26V294.173C859.26 293.669 859.192 293.282 859.058 293.013C858.812 292.521 858.343 292.274 857.651 292.274C856.802 292.274 856.219 292.635 855.902 293.355C855.738 293.736 855.656 294.223 855.656 294.814V300H853.16V290.438H855.577V291.835C855.899 291.343 856.204 290.988 856.491 290.771C857.007 290.385 857.66 290.191 858.451 290.191ZM867.68 290.191C868.26 290.191 868.775 290.32 869.227 290.578C869.678 290.83 870.044 291.182 870.325 291.633V287.062H872.865V300H870.431V298.673C870.073 299.241 869.666 299.654 869.209 299.912C868.752 300.17 868.184 300.299 867.504 300.299C866.385 300.299 865.441 299.848 864.674 298.945C863.912 298.037 863.531 296.874 863.531 295.456C863.531 293.821 863.906 292.535 864.656 291.598C865.412 290.66 866.42 290.191 867.68 290.191ZM868.225 298.189C868.934 298.189 869.473 297.926 869.842 297.398C870.211 296.871 870.396 296.188 870.396 295.351C870.396 294.179 870.1 293.341 869.508 292.837C869.145 292.532 868.723 292.38 868.242 292.38C867.51 292.38 866.971 292.658 866.625 293.215C866.285 293.766 866.115 294.451 866.115 295.271C866.115 296.156 866.288 296.865 866.634 297.398C866.985 297.926 867.516 298.189 868.225 298.189Z" fill="#1467C6"/>
<circle cx="818.935" cy="145.339" r="47.5" stroke="#1467C6" stroke-width="5"/>
<path fill-rule="evenodd" clip-rule="evenodd" d="M818.935 124.877C822.607 124.877 826.041 126.291 828.605 128.858C829.872 130.126 830.876 131.633 831.557 133.291C832.239 134.949 832.585 136.726 832.576 138.519C832.576 142.578 831.134 146.107 828.404 148.713L827.985 149.11L827.983 149.112C826.466 150.548 824.391 152.512 824.391 154.206V156.253C824.391 156.614 824.247 156.961 823.992 157.217C823.736 157.473 823.389 157.617 823.027 157.617H820.981C820.8 157.617 820.626 157.545 820.499 157.417C820.371 157.289 820.299 157.116 820.299 156.935V146.941C820.299 146.803 820.34 146.669 820.419 146.555C820.497 146.441 820.607 146.354 820.736 146.304C821.524 145.984 822.272 145.574 822.967 145.084C823.237 144.865 823.414 144.551 823.462 144.207C823.509 143.862 823.423 143.512 823.22 143.229C823.018 142.946 822.716 142.751 822.374 142.683C822.033 142.616 821.679 142.682 821.384 142.867C820.751 143.312 819.537 143.975 818.935 143.975C818.333 143.975 817.118 143.314 816.487 142.867C816.342 142.751 816.175 142.667 815.997 142.618C815.818 142.569 815.631 142.557 815.448 142.583C815.265 142.608 815.088 142.671 814.93 142.767C814.772 142.863 814.635 142.99 814.527 143.141C814.419 143.291 814.343 143.462 814.304 143.643C814.265 143.824 814.262 144.011 814.297 144.193C814.333 144.375 814.404 144.547 814.508 144.7C814.612 144.854 814.747 144.984 814.903 145.084C815.597 145.575 816.345 145.986 817.133 146.307C817.262 146.357 817.373 146.444 817.451 146.558C817.529 146.671 817.57 146.806 817.57 146.944V156.935C817.57 157.116 817.499 157.289 817.371 157.417C817.243 157.545 817.069 157.617 816.888 157.617H814.842C814.48 157.617 814.133 157.473 813.877 157.217C813.622 156.961 813.478 156.614 813.478 156.253V154.206C813.478 152.47 811.378 150.504 809.842 149.068L809.471 148.719C806.817 146.212 805.293 142.493 805.293 138.519C805.289 136.726 805.639 134.95 806.323 133.293C807.007 131.636 808.011 130.131 809.279 128.863C810.547 127.595 812.052 126.591 813.709 125.907C815.366 125.223 817.142 124.873 818.935 124.877ZM823.027 158.981H814.842C814.48 158.981 814.133 159.125 813.878 159.381C813.622 159.636 813.478 159.983 813.478 160.345C813.478 160.707 813.622 161.054 813.878 161.31C814.133 161.566 814.48 161.709 814.842 161.709H823.027C823.389 161.709 823.736 161.566 823.992 161.31C824.248 161.054 824.391 160.707 824.391 160.345C824.391 159.983 824.248 159.636 823.992 159.381C823.736 159.125 823.389 158.981 823.027 158.981ZM821.663 163.073H816.206C815.844 163.073 815.497 163.217 815.242 163.473C814.986 163.729 814.842 164.076 814.842 164.438C814.842 164.799 814.986 165.146 815.242 165.402C815.497 165.658 815.844 165.802 816.206 165.802H821.663C822.025 165.802 822.372 165.658 822.627 165.402C822.883 165.146 823.027 164.799 823.027 164.438C823.027 164.076 822.883 163.729 822.627 163.473C822.372 163.217 822.025 163.073 821.663 163.073Z" fill="#1467C6"/>
</svg>
